NotoSansThaana-Black.ufo
<glyph name="exclam" format="2">
  <advance width="428"/>
  <unicode hex="0021"/>
  <outline>
    <contour>
      <point x="121" y="252" type="line"/>
      <point x="281" y="252" type="line"/>
      <point x="405" y="714" type="line"/>
      <point x="197" y="714" type="line"/>
    </contour>
    <contour>
      <point x="157" y="-12" type="curve" smooth="yes"/>
      <point x="225" y="-12"/>
      <point x="273" y="25"/>
      <point x="273" y="100" type="curve" smooth="yes"/>
      <point x="273" y="148"/>
      <point x="241" y="176"/>
      <point x="185" y="176" type="curve" smooth="yes"/>
      <point x="105" y="176"/>
      <point x="66" y="126"/>
      <point x="66" y="62" type="curve" smooth="yes"/>
      <point x="66" y="24"/>
      <point x="88" y="-12"/>
    </contour>
  </outline>
</glyph>
<glyph name="quotedbl" format="2">
  <advance width="454"/>
  <unicode hex="0022"/>
  <outline>
    <contour>
      <point x="303" y="482" type="line"/>
      <point x="417" y="482" type="line"/>
      <point x="486" y="714" type="line"/>
      <point x="336" y="714" type="line"/>
    </contour>
    <contour>
      <point x="110" y="482" type="line"/>
      <point x="222" y="482" type="line"/>
      <point x="292" y="714" type="line"/>
      <point x="141" y="714" type="line"/>
    </contour>
  </outline>
</glyph>
<glyph name="parenleft" format="2">
  <advance width="500"/>
  <unicode hex="0028"/>
  <outline>
    <contour>
      <point x="167" y="-158" type="curve"/>
      <point x="318" y="-158" type="line"/>
      <point x="282" y="-66"/>
      <point x="261" y="58"/>
      <point x="261" y="151" type="curve" smooth="yes"/>
      <point x="261" y="394"/>
      <point x="367" y="580"/>
      <point x="509" y="734" type="curve"/>
      <point x="343" y="734" type="line"/>
      <point x="181" y="567"/>
      <point x="93" y="386"/>
      <point x="93" y="159" type="curve" smooth="yes"/>
      <point x="93" y="55"/>
      <point x="120" y="-75"/>
    </contour>
  </outline>
</glyph>
<glyph name="parenright" format="2">
  <advance width="520"/>
  <unicode hex="0029"/>
  <outline>
    <contour>
      <point x="-3" y="-158" type="curve"/>
      <point x="164" y="-158" type="line"/>
      <point x="326" y="9"/>
      <point x="409" y="190"/>
      <point x="409" y="417" type="curve" smooth="yes"/>
      <point x="409" y="521"/>
      <point x="386" y="645"/>
      <point x="335" y="734" type="curve"/>
      <point x="183" y="734" type="line"/>
      <point x="219" y="642"/>
      <point x="241" y="518"/>
      <point x="241" y="425" type="curve" smooth="yes"/>
      <point x="241" y="182"/>
      <point x="139" y="-4"/>
    </contour>
  </outline>
</glyph>
<glyph name="comma" format="2">
  <advance width="387"/>
  <unicode hex="002C"/>
  <outline>
    <contour>
      <point x="186" y="-3" type="curve" smooth="yes"/>
      <point x="264" y="-3"/>
      <point x="295" y="22"/>
      <point x="295" y="71" type="curve" smooth="yes"/>
      <point x="295" y="118"/>
      <point x="284" y="128"/>
      <point x="234" y="142" type="curve"/>
      <point x="236" y="154"/>
      <point x="260" y="201"/>
      <point x="282" y="238" type="curve"/>
      <point x="167" y="292" type="line"/>
      <point x="125" y="224"/>
      <point x="81" y="127"/>
      <point x="81" y="74" type="curve" smooth="yes"/>
      <point x="81" y="20"/>
      <point x="121" y="-3"/>
    </contour>
  </outline>
</glyph>
<glyph name="period" format="2">
  <advance width="387"/>
  <unicode hex="002E"/>
  <outline>
    <contour>
      <point x="156" y="-12" type="curve" smooth="yes"/>
      <point x="243" y="-12"/>
      <point x="284" y="18"/>
      <point x="284" y="106" type="curve" smooth="yes"/>
      <point x="284" y="169"/>
      <point x="256" y="189"/>
      <point x="193" y="189" type="curve" smooth="yes"/>
      <point x="108" y="189"/>
      <point x="70" y="161"/>
      <point x="70" y="74" type="curve" smooth="yes"/>
      <point x="70" y="12"/>
      <point x="96" y="-12"/>
    </contour>
  </outline>
</glyph>
<glyph name="seven" format="2">
  <advance width="586"/>
  <unicode hex="0037"/>
  <outline>
    <contour>
      <point x="102" y="0" type="line"/>
      <point x="302" y="0" type="line"/>
      <point x="553" y="600" type="line"/>
      <point x="553" y="714" type="line"/>
      <point x="38" y="714" type="line"/>
      <point x="38" y="554" type="line"/>
      <point x="347" y="554" type="line"/>
    </contour>
  </outline>
</glyph>
<glyph name="nine" format="2">
  <advance width="586"/>
  <unicode hex="0039"/>
  <outline>
    <contour>
      <point x="553" y="387" type="curve" smooth="yes"/>
      <point x="553" y="624"/>
      <point x="432" y="721"/>
      <point x="279" y="721" type="curve" smooth="yes"/>
      <point x="122" y="721"/>
      <point x="26" y="627"/>
      <point x="26" y="468" type="curve" smooth="yes"/>
      <point x="26" y="319"/>
      <point x="103" y="235"/>
      <point x="223" y="235" type="curve" smooth="yes"/>
      <point x="318" y="235"/>
      <point x="347" y="270"/>
      <point x="373" y="318" type="curve"/>
      <point x="379" y="318" type="line"/>
      <point x="374" y="226"/>
      <point x="331" y="140"/>
      <point x="158" y="140" type="curve" smooth="yes"/>
      <point x="128" y="140"/>
      <point x="102" y="143"/>
      <point x="74" y="148" type="curve"/>
      <point x="74" y="-5" type="line"/>
      <point x="101" y="-9"/>
      <point x="145" y="-10"/>
      <point x="174" y="-10" type="curve" smooth="yes"/>
      <point x="452" y="-10"/>
      <point x="553" y="122"/>
    </contour>
    <contour>
      <point x="284" y="567" type="curve" smooth="yes"/>
      <point x="333" y="567"/>
      <point x="361" y="512"/>
      <point x="361" y="461" type="curve" smooth="yes"/>
      <point x="361" y="423"/>
      <point x="329" y="383"/>
      <point x="282" y="383" type="curve" smooth="yes"/>
      <point x="236" y="383"/>
      <point x="213" y="417"/>
      <point x="213" y="470" type="curve" smooth="yes"/>
      <point x="213" y="538"/>
      <point x="242" y="567"/>
    </contour>
  </outline>
</glyph>
<glyph name="question-ar" format="2">
  <advance width="479"/>
  <unicode hex="061F"/>
  <outline>
    <contour>
      <point x="181" y="259" type="curve"/>
      <point x="342" y="259" type="line"/>
      <point x="348" y="285" type="line" smooth="yes"/>
      <point x="364" y="355"/>
      <point x="352" y="393"/>
      <point x="315" y="429" type="curve" smooth="yes"/>
      <point x="288" y="455" type="line" smooth="yes"/>
      <point x="268" y="475"/>
      <point x="251" y="495"/>
      <point x="251" y="524" type="curve" smooth="yes"/>
      <point x="251" y="558"/>
      <point x="274" y="578"/>
      <point x="311" y="578" type="curve" smooth="yes"/>
      <point x="352" y="578"/>
      <point x="403" y="552"/>
      <point x="446" y="520" type="curve"/>
      <point x="545" y="655" type="line"/>
      <point x="487" y="696"/>
      <point x="410" y="724"/>
      <point x="316" y="724" type="curve" smooth="yes"/>
      <point x="147" y="724"/>
      <point x="78" y="630"/>
      <point x="78" y="526" type="curve" smooth="yes"/>
      <point x="78" y="461"/>
      <point x="104" y="415"/>
      <point x="129" y="390" type="curve" smooth="yes"/>
      <point x="156" y="364" type="line" smooth="yes"/>
      <point x="185" y="336"/>
      <point x="193" y="319"/>
      <point x="188" y="291" type="curve" smooth="yes"/>
      <point x="185" y="277"/>
      <point x="183" y="268"/>
    </contour>
    <contour>
      <point x="202" y="-12" type="curve" smooth="yes"/>
      <point x="276" y="-12"/>
      <point x="324" y="14"/>
      <point x="324" y="100" type="curve" smooth="yes"/>
      <point x="324" y="152"/>
      <point x="288" y="176"/>
      <point x="236" y="176" type="curve" smooth="yes"/>
      <point x="172" y="176"/>
      <point x="117" y="141"/>
      <point x="117" y="62" type="curve" smooth="yes"/>
      <point x="117" y="11"/>
      <point x="151" y="-12"/>
    </contour>
  </outline>
</glyph>
<glyph name="zero-ar" format="2">
  <advance width="361"/>
  <unicode hex="0660"/>
  <outline>
    <contour>
      <point x="186" y="169" type="curve"/>
      <point x="311" y="295" type="line"/>
      <point x="275" y="340"/>
      <point x="226" y="391"/>
      <point x="172" y="431" type="curve"/>
      <point x="50" y="301" type="line"/>
      <point x="104" y="256"/>
      <point x="134" y="225"/>
    </contour>
  </outline>
</glyph>
<glyph name="one-ar" format="2">
  <advance width="350"/>
  <unicode hex="0661"/>
  <outline>
    <contour>
      <point x="300" y="0" type="line"/>
      <point x="300" y="139"/>
      <point x="281" y="471"/>
      <point x="211" y="692" type="curve"/>
      <point x="35" y="646" type="line"/>
      <point x="94" y="428"/>
      <point x="124" y="57"/>
      <point x="124" y="-7" type="curve"/>
    </contour>
  </outline>
</glyph>
<glyph name="two-ar" format="2">
  <advance width="576"/>
  <unicode hex="0662"/>
  <outline>
    <contour>
      <point x="296" y="0" type="line"/>
      <point x="296" y="139"/>
      <point x="277" y="471"/>
      <point x="207" y="692" type="curve"/>
      <point x="35" y="646" type="line"/>
      <point x="94" y="428"/>
      <point x="124" y="57"/>
      <point x="124" y="-7" type="curve"/>
    </contour>
    <contour>
      <point x="315" y="405" type="curve" smooth="yes"/>
      <point x="483" y="405"/>
      <point x="544" y="491"/>
      <point x="561" y="658" type="curve"/>
      <point x="407" y="679" type="line"/>
      <point x="399" y="602"/>
      <point x="380" y="566"/>
      <point x="307" y="566" type="curve" smooth="yes"/>
      <point x="279" y="566"/>
      <point x="232" y="572"/>
      <point x="194" y="585" type="curve"/>
      <point x="194" y="426" type="line"/>
      <point x="245" y="410"/>
      <point x="275" y="405"/>
    </contour>
  </outline>
</glyph>
<glyph name="three-ar" format="2">
  <advance width="671"/>
  <unicode hex="0663"/>
  <outline>
    <contour>
      <point x="296" y="0" type="line"/>
      <point x="296" y="139"/>
      <point x="277" y="471"/>
      <point x="207" y="692" type="curve"/>
      <point x="35" y="646" type="line"/>
      <point x="94" y="428"/>
      <point x="124" y="57"/>
      <point x="124" y="-7" type="curve"/>
    </contour>
    <contour>
      <point x="300" y="401" type="curve" smooth="yes"/>
      <point x="349" y="401"/>
      <point x="382" y="431"/>
      <point x="400" y="487" type="curve"/>
      <point x="380" y="487" type="line"/>
      <point x="389" y="441"/>
      <point x="424" y="405"/>
      <point x="499" y="405" type="curve" smooth="yes"/>
      <point x="596" y="405"/>
      <point x="656" y="466"/>
      <point x="656" y="561" type="curve" smooth="yes"/>
      <point x="656" y="589"/>
      <point x="651" y="628"/>
      <point x="630" y="684" type="curve"/>
      <point x="501" y="648" type="line"/>
      <point x="507" y="629"/>
      <point x="511" y="611"/>
      <point x="511" y="594" type="curve" smooth="yes"/>
      <point x="511" y="575"/>
      <point x="506" y="559"/>
      <point x="474" y="559" type="curve" smooth="yes"/>
      <point x="456" y="559"/>
      <point x="440" y="564"/>
      <point x="440" y="587" type="curve" smooth="yes"/>
      <point x="440" y="596"/>
      <point x="442" y="613"/>
      <point x="446" y="642" type="curve"/>
      <point x="321" y="657" type="line"/>
      <point x="311" y="574"/>
      <point x="298" y="555"/>
      <point x="277" y="555" type="curve" smooth="yes"/>
      <point x="258" y="555"/>
      <point x="247" y="571"/>
      <point x="245" y="577" type="curve" smooth="yes"/>
      <point x="207" y="692" type="line"/>
      <point x="207" y="477" type="line"/>
      <point x="213" y="443"/>
      <point x="241" y="401"/>
    </contour>
  </outline>
</glyph>
<glyph name="four-ar" format="2">
  <advance width="509"/>
  <unicode hex="0664"/>
  <outline>
    <contour>
      <point x="452" y="183" type="line"/>
      <point x="417" y="170"/>
      <point x="355" y="154"/>
      <point x="308" y="154" type="curve" smooth="yes"/>
      <point x="269" y="154"/>
      <point x="218" y="165"/>
      <point x="218" y="196" type="curve" smooth="yes"/>
      <point x="218" y="234"/>
      <point x="281" y="258"/>
      <point x="346" y="282" type="curve"/>
      <point x="329" y="415" type="line"/>
      <point x="266" y="399"/>
      <point x="206" y="418"/>
      <point x="206" y="445" type="curve" smooth="yes"/>
      <point x="206" y="478"/>
      <point x="276" y="521"/>
      <point x="378" y="542" type="curve"/>
      <point x="327" y="696" type="line"/>
      <point x="80" y="631"/>
      <point x="46" y="504"/>
      <point x="46" y="447" type="curve" smooth="yes"/>
      <point x="46" y="404"/>
      <point x="75" y="354"/>
      <point x="135" y="322" type="curve"/>
      <point x="81" y="283"/>
      <point x="40" y="233"/>
      <point x="40" y="170" type="curve" smooth="yes"/>
      <point x="40" y="78"/>
      <point x="126" y="-6"/>
      <point x="301" y="-6" type="curve" smooth="yes"/>
      <point x="369" y="-6"/>
      <point x="439" y="9"/>
      <point x="489" y="37" type="curve"/>
    </contour>
  </outline>
</glyph>
<glyph name="five-ar" format="2">
  <advance width="567"/>
  <unicode hex="0665"/>
  <outline>
    <contour>
      <point x="284" y="0" type="curve"/>
      <point x="430" y="0"/>
      <point x="517" y="96"/>
      <point x="517" y="254" type="curve"/>
      <point x="517" y="398"/>
      <point x="440" y="547"/>
      <point x="289" y="547" type="curve"/>
      <point x="144" y="547"/>
      <point x="50" y="406"/>
      <point x="50" y="242" type="curve"/>
      <point x="50" y="69"/>
      <point x="136" y="0"/>
    </contour>
    <contour>
      <point x="281" y="162" type="curve"/>
      <point x="245" y="162"/>
      <point x="213" y="181"/>
      <point x="213" y="241" type="curve"/>
      <point x="213" y="291"/>
      <point x="231" y="381"/>
      <point x="283" y="381" type="curve"/>
      <point x="327" y="381"/>
      <point x="348" y="307"/>
      <point x="348" y="241" type="curve"/>
      <point x="348" y="193"/>
      <point x="322" y="162"/>
    </contour>
  </outline>
</glyph>
<glyph name="six-ar" format="2">
  <advance width="558"/>
  <unicode hex="0666"/>
  <outline>
    <contour>
      <point x="335" y="0" type="curve"/>
      <point x="513" y="10" type="line"/>
      <point x="473" y="229"/>
      <point x="439" y="493"/>
      <point x="439" y="683" type="curve"/>
      <point x="299" y="652" type="line"/>
      <point x="267" y="604" type="line"/>
      <point x="267" y="352"/>
      <point x="318" y="77"/>
    </contour>
    <contour>
      <point x="343" y="505" type="curve"/>
      <point x="439" y="683" type="line"/>
      <point x="288" y="657"/>
      <point x="135" y="665"/>
      <point x="37" y="699" type="curve"/>
      <point x="5" y="531" type="line"/>
      <point x="91" y="492"/>
      <point x="270" y="479"/>
    </contour>
  </outline>
</glyph>
<glyph name="seven-ar" format="2">
  <advance width="632"/>
  <unicode hex="0667"/>
  <outline>
    <contour>
      <point x="238" y="-10" type="line"/>
      <point x="405" y="12" type="line"/>
      <point x="447" y="172"/>
      <point x="537" y="441"/>
      <point x="627" y="633" type="curve"/>
      <point x="471" y="699" type="line"/>
      <point x="414" y="569"/>
      <point x="342" y="357"/>
      <point x="303" y="141" type="curve"/>
    </contour>
    <contour>
      <point x="237" y="-10" type="curve"/>
      <point x="401" y="12" type="line"/>
      <point x="335" y="173" type="line"/>
      <point x="282" y="353"/>
      <point x="221" y="562"/>
      <point x="165" y="699" type="curve"/>
      <point x="5" y="639" type="line"/>
      <point x="80" y="472"/>
      <point x="188" y="153"/>
    </contour>
  </outline>
</glyph>
<glyph name="eight-ar" format="2">
  <advance width="632"/>
  <unicode hex="0668"/>
  <outline>
    <contour>
      <point x="161" y="-19" type="line"/>
      <point x="219" y="112"/>
      <point x="297" y="320"/>
      <point x="336" y="538" type="curve"/>
      <point x="396" y="689" type="line"/>
      <point x="227" y="656" type="line"/>
      <point x="185" y="495"/>
      <point x="95" y="240"/>
      <point x="5" y="47" type="curve"/>
    </contour>
    <contour>
      <point x="467" y="-19" type="curve"/>
      <point x="627" y="41" type="line"/>
      <point x="553" y="209"/>
      <point x="446" y="525"/>
      <point x="397" y="689" type="curve"/>
      <point x="231" y="656" type="line"/>
      <point x="297" y="506" type="line"/>
      <point x="350" y="328"/>
      <point x="411" y="116"/>
    </contour>
  </outline>
</glyph>
<glyph name="nine-ar" format="2">
  <advance width="583"/>
  <unicode hex="0669"/>
  <outline>
    <contour>
      <point x="372" y="0" type="curve"/>
      <point x="538" y="28" type="line"/>
      <point x="515" y="133"/>
      <point x="504" y="273"/>
      <point x="496" y="407" type="curve" smooth="yes"/>
      <point x="487" y="556"/>
      <point x="434" y="685"/>
      <point x="268" y="685" type="curve" smooth="yes"/>
      <point x="122" y="685"/>
      <point x="15" y="567"/>
      <point x="15" y="431" type="curve" smooth="yes"/>
      <point x="15" y="300"/>
      <point x="101" y="231"/>
      <point x="241" y="231" type="curve" smooth="yes"/>
      <point x="285" y="231"/>
      <point x="333" y="241"/>
      <point x="382" y="262" type="curve"/>
      <point x="356" y="419" type="line"/>
      <point x="323" y="403"/>
      <point x="293" y="396"/>
      <point x="257" y="396" type="curve" smooth="yes"/>
      <point x="219" y="396"/>
      <point x="197" y="422"/>
      <point x="197" y="458" type="curve" smooth="yes"/>
      <point x="197" y="488"/>
      <point x="216" y="517"/>
      <point x="249" y="517" type="curve" smooth="yes"/>
      <point x="294" y="517"/>
      <point x="316" y="488"/>
      <point x="323" y="403" type="curve" smooth="yes"/>
      <point x="337" y="266"/>
      <point x="336" y="134"/>
    </contour>
  </outline>
</glyph>
<glyph name="percent-ar" format="2">
  <advance width="584"/>
  <unicode hex="066A"/>
  <outline>
    <contour>
      <point x="198" y="-39" type="line"/>
      <point x="517" y="645" type="line"/>
      <point x="381" y="704" type="line"/>
      <point x="64" y="17" type="line"/>
    </contour>
    <contour>
      <point x="463" y="-24" type="curve"/>
      <point x="564" y="77" type="line"/>
      <point x="533" y="115"/>
      <point x="491" y="158"/>
      <point x="446" y="193" type="curve"/>
      <point x="347" y="87" type="line"/>
      <point x="393" y="49"/>
      <point x="418" y="22"/>
    </contour>
    <contour>
      <point x="146" y="484" type="curve"/>
      <point x="247" y="585" type="line"/>
      <point x="216" y="623"/>
      <point x="174" y="666"/>
      <point x="129" y="701" type="curve"/>
      <point x="30" y="595" type="line"/>
      <point x="76" y="557"/>
      <point x="101" y="530"/>
    </contour>
  </outline>
</glyph>
<glyph name="decimalseparator-ar" format="2">
  <advance width="272"/>
  <unicode hex="066B"/>
  <outline>
    <contour>
      <point x="48" y="-155" type="line"/>
      <point x="138" y="-155" type="line"/>
      <point x="166" y="-110"/>
      <point x="242" y="15"/>
      <point x="242" y="83" type="curve" smooth="yes"/>
      <point x="242" y="141"/>
      <point x="193" y="185"/>
      <point x="140" y="185" type="curve" smooth="yes"/>
      <point x="85" y="185"/>
      <point x="40" y="136"/>
      <point x="40" y="84" type="curve" smooth="yes"/>
      <point x="40" y="41"/>
      <point x="67" y="8"/>
      <point x="105" y="0" type="curve"/>
    </contour>
  </outline>
</glyph>
<glyph name="thousandseparator-ar" format="2">
  <advance width="353"/>
  <unicode hex="066C"/>
  <outline>
    <contour>
      <point x="142" y="0" type="curve" smooth="yes"/>
      <point x="197" y="0"/>
      <point x="242" y="49"/>
      <point x="242" y="101" type="curve" smooth="yes"/>
      <point x="242" y="144"/>
      <point x="215" y="177"/>
      <point x="177" y="185" type="curve"/>
      <point x="234" y="340" type="line"/>
      <point x="144" y="340" type="line"/>
      <point x="116" y="295"/>
      <point x="40" y="170"/>
      <point x="40" y="102" type="curve" smooth="yes"/>
      <point x="40" y="44"/>
      <point x="89" y="0"/>
    </contour>
  </outline>
</glyph>
<glyph name="asterisk-ar" format="2">
  <advance width="498"/>
  <unicode hex="066D"/>
  <guideline x="239" y="452" angle="0"/>
  <outline>
    <contour>
      <point x="403" y="-1" type="line"/>
      <point x="408" y="3" type="line"/>
      <point x="335" y="187" type="line"/>
      <point x="488" y="279" type="line"/>
      <point x="486" y="287" type="line"/>
      <point x="303" y="283" type="line"/>
      <point x="253" y="458" type="line"/>
      <point x="246" y="458" type="line"/>
      <point x="193" y="283" type="line"/>
      <point x="12" y="287" type="line"/>
      <point x="10" y="279" type="line"/>
      <point x="161" y="185" type="line"/>
      <point x="90" y="4" type="line"/>
      <point x="96" y="0" type="line"/>
      <point x="246" y="119" type="line"/>
    </contour>
  </outline>
</glyph>
<glyph name="haa-thaana" format="2">
  <advance width="368"/>
  <unicode hex="0780"/>
  <anchor x="4" y="-6" name="b.uni07A8"/>
  <anchor x="289" y="398" name="t.uni07A6"/>
  <outline>
    <contour>
      <point x="378" y="313" type="curve"/>
      <point x="239" y="430" type="line"/>
      <point x="172" y="344"/>
      <point x="82" y="245"/>
      <point x="10" y="167" type="curve"/>
      <point x="60" y="121"/>
      <point x="118" y="69"/>
      <point x="159" y="39" type="curve"/>
      <point x="225" y="114"/>
      <point x="319" y="223"/>
    </contour>
  </outline>
</glyph>
<glyph name="shaviyani-thaana" format="2">
  <advance width="618"/>
  <unicode hex="0781"/>
  <anchor x="157" y="0" name="b.uni07A8"/>
  <anchor x="418" y="429" name="t.uni07A6"/>
  <outline>
    <contour>
      <point x="292" y="179" type="line"/>
      <point x="341" y="167"/>
      <point x="387" y="160"/>
      <point x="429" y="160" type="curve" smooth="yes"/>
      <point x="478" y="160"/>
      <point x="529" y="169"/>
      <point x="562" y="211" type="curve" smooth="yes"/>
      <point x="596" y="255"/>
      <point x="619" y="331"/>
      <point x="628" y="408" type="curve"/>
      <point x="517" y="421" type="line"/>
      <point x="512" y="405"/>
      <point x="503" y="379"/>
      <point x="494" y="358" type="curve" smooth="yes"/>
      <point x="487" y="342"/>
      <point x="481" y="334"/>
      <point x="468" y="330" type="curve" smooth="yes"/>
      <point x="454" y="326"/>
      <point x="441" y="325"/>
      <point x="426" y="325" type="curve" smooth="yes"/>
      <point x="396" y="325"/>
      <point x="358" y="333"/>
      <point x="322" y="345" type="curve"/>
    </contour>
    <component base="_part.haa" xOffset="-160"/>
  </outline>
</glyph>
<glyph name="noonu-thaana" format="2">
  <advance width="762"/>
  <unicode hex="0782"/>
  <anchor x="169" y="0" name="b.uni07A8"/>
  <anchor x="531" y="414" name="t.uni07A6"/>
  <outline>
    <contour>
      <point x="251" y="191" type="line"/>
      <point x="295" y="176"/>
      <point x="336" y="168"/>
      <point x="372" y="168" type="curve" smooth="yes"/>
      <point x="420" y="168"/>
      <point x="465" y="194"/>
      <point x="480" y="208" type="curve" smooth="yes"/>
      <point x="547" y="272"/>
      <point x="566" y="347"/>
      <point x="576" y="401" type="curve"/>
      <point x="467" y="413" type="line"/>
      <point x="462" y="397"/>
      <point x="454" y="375"/>
      <point x="445" y="355" type="curve" smooth="yes"/>
      <point x="439" y="341"/>
      <point x="434" y="333"/>
      <point x="419" y="331" type="curve" smooth="yes"/>
      <point x="409" y="330"/>
      <point x="397" y="330"/>
      <point x="389" y="330" type="curve" smooth="yes"/>
      <point x="353" y="330"/>
      <point x="318" y="344"/>
      <point x="280" y="363" type="curve"/>
    </contour>
    <contour>
      <point x="413" y="206" type="line"/>
      <point x="460" y="178"/>
      <point x="513" y="168"/>
      <point x="561" y="168" type="curve" smooth="yes"/>
      <point x="611" y="168"/>
      <point x="674" y="180"/>
      <point x="707" y="220" type="curve" smooth="yes"/>
      <point x="744" y="266"/>
      <point x="764" y="348"/>
      <point x="772" y="408" type="curve"/>
      <point x="661" y="421" type="line"/>
      <point x="656" y="407"/>
      <point x="647" y="383"/>
      <point x="639" y="364" type="curve" smooth="yes"/>
      <point x="632" y="348"/>
      <point x="627" y="340"/>
      <point x="614" y="336" type="curve" smooth="yes"/>
      <point x="600" y="332"/>
      <point x="591" y="331"/>
      <point x="576" y="331" type="curve" smooth="yes"/>
      <point x="539" y="331"/>
      <point x="497" y="346"/>
      <point x="460" y="365" type="curve"/>
    </contour>
    <component base="_part.haa" xOffset="-160"/>
  </outline>
</glyph>
<glyph name="raa-thaana" format="2">
  <advance width="562"/>
  <unicode hex="0783"/>
  <anchor x="176" y="0" name="b.uni07A8"/>
  <anchor x="443" y="414" name="t.uni07A6"/>
  <outline>
    <contour>
      <point x="24" y="41" type="curve"/>
      <point x="57" y="6"/>
      <point x="108" y="-42"/>
      <point x="173" y="-87" type="curve"/>
      <point x="217" y="-39"/>
      <point x="268" y="20"/>
      <point x="304" y="62" type="curve" smooth="yes"/>
      <point x="334" y="97"/>
      <point x="357" y="127"/>
      <point x="341" y="203" type="curve"/>
      <point x="259" y="156" type="line"/>
      <point x="327" y="133"/>
      <point x="391" y="115"/>
      <point x="473" y="96" type="curve"/>
      <point x="520" y="221" type="line"/>
      <point x="475" y="232"/>
      <point x="447" y="239"/>
      <point x="428" y="244" type="curve"/>
      <point x="424" y="216" type="line"/>
      <point x="437" y="238"/>
      <point x="449" y="253"/>
      <point x="470" y="275" type="curve" smooth="yes"/>
      <point x="512" y="319" type="line"/>
      <point x="374" y="441" type="line"/>
      <point x="304" y="368" type="line" smooth="yes"/>
      <point x="272" y="334"/>
      <point x="261" y="321"/>
      <point x="261" y="300" type="curve" smooth="yes"/>
      <point x="261" y="280"/>
      <point x="273" y="257"/>
      <point x="318" y="234" type="curve"/>
      <point x="381" y="257" type="line"/>
      <point x="297" y="280"/>
      <point x="233" y="302"/>
      <point x="128" y="340" type="curve"/>
      <point x="114" y="297"/>
      <point x="97" y="240"/>
      <point x="89" y="207" type="curve"/>
      <point x="118" y="195"/>
      <point x="161" y="181"/>
      <point x="225" y="164" type="curve"/>
      <point x="205" y="224" type="line"/>
      <point x="153" y="170"/>
      <point x="77" y="92"/>
    </contour>
  </outline>
</glyph>
<glyph name="baa-thaana" format="2">
  <advance width="565"/>
  <unicode hex="0784"/>
  <anchor x="139" y="0" name="b.uni07A8"/>
  <anchor x="356" y="414" name="t.uni07A6"/>
  <outline>
    <contour>
      <point x="49" y="194" type="curve" smooth="yes"/>
      <point x="49" y="91"/>
      <point x="134" y="40"/>
      <point x="236" y="40" type="curve" smooth="yes"/>
      <point x="404" y="40"/>
      <point x="548" y="117"/>
      <point x="548" y="275" type="curve" smooth="yes"/>
      <point x="548" y="345"/>
      <point x="508" y="414"/>
      <point x="430" y="414" type="curve" smooth="yes"/>
      <point x="366" y="414"/>
      <point x="320" y="369"/>
      <point x="283" y="284" type="curve"/>
      <point x="326" y="218" type="line"/>
      <point x="344" y="244"/>
      <point x="370" y="264"/>
      <point x="396" y="264" type="curve" smooth="yes"/>
      <point x="411" y="264"/>
      <point x="432" y="256"/>
      <point x="432" y="247" type="curve" smooth="yes"/>
      <point x="432" y="230"/>
      <point x="336" y="194"/>
      <point x="226" y="194" type="curve" smooth="yes"/>
      <point x="194" y="194"/>
      <point x="157" y="202"/>
      <point x="157" y="207" type="curve" smooth="yes"/>
      <point x="157" y="211"/>
      <point x="194" y="237"/>
      <point x="230" y="237" type="curve" smooth="yes"/>
      <point x="256" y="237"/>
      <point x="266" y="227"/>
      <point x="266" y="218" type="curve" smooth="yes"/>
      <point x="266" y="195"/>
      <point x="243" y="178"/>
      <point x="216" y="160" type="curve"/>
      <point x="294" y="122" type="line"/>
      <point x="320" y="166"/>
      <point x="337" y="213"/>
      <point x="337" y="252" type="curve" smooth="yes"/>
      <point x="337" y="341"/>
      <point x="286" y="383"/>
      <point x="226" y="383" type="curve" smooth="yes"/>
      <point x="134" y="383"/>
      <point x="49" y="310"/>
    </contour>
  </outline>
</glyph>
<glyph name="lhaviyani-thaana" format="2">
  <advance width="459"/>
  <unicode hex="0785"/>
  <anchor x="60" y="0" name="b.uni07A8"/>
  <anchor x="278" y="414" name="t.uni07A6"/>
  <outline>
    <contour>
      <point x="87" y="164" type="curve"/>
      <point x="129" y="124"/>
      <point x="184" y="79"/>
      <point x="237" y="39" type="curve"/>
      <point x="288" y="96"/>
      <point x="393" y="218"/>
      <point x="469" y="308" type="curve"/>
      <point x="333" y="418" type="line"/>
      <point x="287" y="379"/>
      <point x="249" y="354"/>
      <point x="226" y="354" type="curve" smooth="yes"/>
      <point x="210" y="354"/>
      <point x="203" y="360"/>
      <point x="203" y="379" type="curve" smooth="yes"/>
      <point x="203" y="389"/>
      <point x="204" y="400"/>
      <point x="206" y="414" type="curve"/>
      <point x="101" y="405" type="line"/>
      <point x="100" y="396"/>
      <point x="99" y="386"/>
      <point x="99" y="369" type="curve" smooth="yes"/>
      <point x="99" y="318"/>
      <point x="107" y="258"/>
      <point x="186" y="258" type="curve" smooth="yes"/>
      <point x="206" y="258"/>
      <point x="220" y="260"/>
      <point x="243" y="264" type="curve"/>
      <point x="212" y="294" type="line"/>
      <point x="176" y="255"/>
      <point x="136" y="214"/>
    </contour>
  </outline>
</glyph>
<glyph name="kaafu-thaana" format="2">
  <advance width="537"/>
  <unicode hex="0786"/>
  <anchor x="116" y="0" name="b.uni07A8"/>
  <anchor x="340" y="414" name="t.uni07A6"/>
  <outline>
    <contour>
      <point x="75" y="363" type="line"/>
      <point x="84" y="263"/>
      <point x="89" y="195"/>
      <point x="95" y="94" type="curve"/>
      <point x="308" y="39" type="line"/>
      <point x="358" y="93"/>
      <point x="484" y="236"/>
      <point x="547" y="308" type="curve"/>
      <point x="400" y="418" type="line"/>
      <point x="362" y="371"/>
      <point x="317" y="316"/>
      <point x="266" y="258" type="curve"/>
      <point x="275" y="264" type="line"/>
      <point x="256" y="264" type="line"/>
      <point x="260" y="262" type="line"/>
      <point x="260" y="306"/>
      <point x="262" y="346"/>
      <point x="266" y="389" type="curve"/>
    </contour>
  </outline>
</glyph>
<glyph name="alifu-thaana" format="2">
  <advance width="542"/>
  <unicode hex="0787"/>
  <anchor x="69" y="0" name="b.uni07A8"/>
  <anchor x="357" y="414" name="t.uni07A6"/>
  <outline>
    <contour>
      <point x="10" y="167" type="curve"/>
      <point x="59" y="118"/>
      <point x="117" y="72"/>
      <point x="159" y="39" type="curve"/>
      <point x="222" y="110"/>
      <point x="267" y="165"/>
      <point x="299" y="209" type="curve"/>
      <point x="279" y="205" type="line"/>
      <point x="309" y="205" type="line"/>
      <point x="310" y="209" type="line"/>
      <point x="303" y="144"/>
      <point x="295" y="87"/>
      <point x="292" y="68" type="curve"/>
      <point x="488" y="79" type="line"/>
      <point x="488" y="119"/>
      <point x="486" y="299"/>
      <point x="483" y="382" type="curve"/>
      <point x="255" y="418" type="line"/>
      <point x="203" y="362"/>
      <point x="93" y="249"/>
    </contour>
  </outline>
</glyph>
<glyph name="vaavu-thaana" format="2">
  <advance width="467"/>
  <unicode hex="0788"/>
  <anchor x="173" y="0" name="b.uni07A8"/>
  <anchor x="291" y="415" name="t.uni07A6"/>
  <outline>
    <contour>
      <point x="53" y="38" type="curve"/>
      <point x="99" y="-7"/>
      <point x="153" y="-52"/>
      <point x="202" y="-90" type="curve"/>
      <point x="260" y="-24"/>
      <point x="324" y="52"/>
      <point x="376" y="114" type="curve" smooth="yes"/>
      <point x="409" y="153"/>
      <point x="436" y="185"/>
      <point x="436" y="240" type="curve" smooth="yes"/>
      <point x="436" y="326"/>
      <point x="354" y="415"/>
      <point x="238" y="415" type="curve" smooth="yes"/>
      <point x="155" y="415"/>
      <point x="58" y="370"/>
      <point x="58" y="279" type="curve" smooth="yes"/>
      <point x="58" y="205"/>
      <point x="109" y="141"/>
      <point x="188" y="107" type="curve"/>
      <point x="277" y="168" type="line"/>
      <point x="219" y="174"/>
      <point x="181" y="196"/>
      <point x="181" y="225" type="curve" smooth="yes"/>
      <point x="181" y="254"/>
      <point x="223" y="275"/>
      <point x="255" y="275" type="curve" smooth="yes"/>
      <point x="267" y="275"/>
      <point x="275" y="269"/>
      <point x="275" y="264" type="curve" smooth="yes"/>
      <point x="275" y="256"/>
      <point x="271" y="250"/>
      <point x="202" y="181" type="curve" smooth="yes"/>
      <point x="161" y="140"/>
      <point x="109" y="90"/>
    </contour>
  </outline>
</glyph>
<glyph name="faafu-thaana" format="2">
  <advance width="411"/>
  <unicode hex="078A"/>
  <anchor x="177" y="0" name="b.uni07A8"/>
  <anchor x="221" y="424" name="t.uni07A6"/>
  <outline>
    <contour>
      <point x="7" y="40" type="curve"/>
      <point x="53" y="-3"/>
      <point x="105" y="-49"/>
      <point x="156" y="-87" type="curve"/>
      <point x="257" y="25"/>
      <point x="345" y="123"/>
      <point x="369" y="150" type="curve"/>
      <point x="363" y="186"/>
      <point x="353" y="238"/>
      <point x="346" y="262" type="curve"/>
      <point x="322" y="262"/>
      <point x="279" y="260"/>
      <point x="262" y="257" type="curve"/>
      <point x="252" y="231" type="line"/>
      <point x="309" y="276"/>
      <point x="338" y="300"/>
      <point x="348" y="309" type="curve"/>
      <point x="342" y="345"/>
      <point x="333" y="381"/>
      <point x="326" y="398" type="curve"/>
      <point x="280" y="398"/>
      <point x="239" y="396"/>
      <point x="219" y="394" type="curve"/>
      <point x="251" y="390" type="line"/>
      <point x="275" y="411"/>
      <point x="287" y="422"/>
      <point x="312" y="445" type="curve"/>
      <point x="256" y="510" type="line"/>
      <point x="205" y="465"/>
      <point x="171" y="435"/>
      <point x="128" y="399" type="curve"/>
      <point x="145" y="309" type="line"/>
      <point x="169" y="314"/>
      <point x="196" y="318"/>
      <point x="232" y="320" type="curve"/>
      <point x="227" y="345" type="line"/>
      <point x="188" y="310"/>
      <point x="141" y="272"/>
      <point x="100" y="239" type="curve"/>
      <point x="115" y="157" type="line"/>
      <point x="147" y="159"/>
      <point x="188" y="162"/>
      <point x="227" y="167" type="curve"/>
      <point x="207" y="197" type="line"/>
      <point x="140" y="142"/>
      <point x="76" y="92"/>
    </contour>
  </outline>
</glyph>
<glyph name="dhaalu-thaana" format="2">
  <advance width="617"/>
  <unicode hex="078B"/>
  <anchor x="191" y="0" name="b.uni07A8"/>
  <anchor x="305" y="414" name="t.uni07A6"/>
  <anchor x="335" y="456" name="top"/>
  <outline>
    <contour>
      <point x="-18" y="41" type="curve"/>
      <point x="29" y="-5"/>
      <point x="80" y="-48"/>
      <point x="131" y="-87" type="curve"/>
      <point x="173" y="-42"/>
      <point x="224" y="14"/>
      <point x="268" y="65" type="curve" smooth="yes"/>
      <point x="315" y="119"/>
      <point x="358" y="177"/>
      <point x="358" y="238" type="curve" smooth="yes"/>
      <point x="358" y="325"/>
      <point x="298" y="363"/>
      <point x="239" y="363" type="curve" smooth="yes"/>
      <point x="157" y="363"/>
      <point x="101" y="312"/>
      <point x="101" y="249" type="curve" smooth="yes"/>
      <point x="101" y="208"/>
      <point x="119" y="170"/>
      <point x="171" y="151" type="curve"/>
      <point x="171" y="227" type="line"/>
      <point x="145" y="199"/>
      <point x="128" y="182"/>
      <point x="102" y="156" type="curve" smooth="yes"/>
      <point x="71" y="125"/>
      <point x="37" y="92"/>
    </contour>
    <component base="_part.jav" xOffset="7" yOffset="-128"/>
  </outline>
</glyph>
<glyph name="thaa-thaana" format="2">
  <advance width="521"/>
  <unicode hex="078C"/>
  <anchor x="105" y="0" name="b.uni07A8"/>
  <anchor x="335" y="414" name="t.uni07A6"/>
  <outline>
    <contour>
      <point x="-23" y="68" type="curve"/>
      <point x="9" y="-87" type="line"/>
      <point x="94" y="-87"/>
      <point x="172" y="-67"/>
      <point x="218" y="-8" type="curve"/>
      <point x="226" y="10"/>
      <point x="229" y="34"/>
      <point x="229" y="54" type="curve" smooth="yes"/>
      <point x="229" y="110"/>
      <point x="191" y="146"/>
      <point x="150" y="183" type="curve"/>
      <point x="185" y="107" type="line"/>
      <point x="207" y="134"/>
      <point x="228" y="159"/>
      <point x="266" y="195" type="curve" smooth="yes"/>
      <point x="309" y="235"/>
      <point x="356" y="272"/>
      <point x="366" y="272" type="curve" smooth="yes"/>
      <point x="370" y="272"/>
      <point x="374" y="272"/>
      <point x="374" y="266" type="curve" smooth="yes"/>
      <point x="374" y="241"/>
      <point x="349" y="187"/>
      <point x="314" y="187" type="curve" smooth="yes"/>
      <point x="277" y="187"/>
      <point x="261" y="244"/>
      <point x="251" y="284" type="curve"/>
      <point x="195" y="239" type="line"/>
      <point x="218" y="134"/>
      <point x="269" y="49"/>
      <point x="346" y="49" type="curve" smooth="yes"/>
      <point x="430" y="49"/>
      <point x="498" y="147"/>
      <point x="498" y="252" type="curve" smooth="yes"/>
      <point x="498" y="339"/>
      <point x="447" y="416"/>
      <point x="360" y="416" type="curve" smooth="yes"/>
      <point x="291" y="416"/>
      <point x="227" y="367"/>
      <point x="180" y="324" type="curve" smooth="yes"/>
      <point x="131" y="280"/>
      <point x="94" y="241"/>
      <point x="55" y="199" type="curve"/>
      <point x="46" y="116" type="line"/>
      <point x="84" y="85"/>
      <point x="111" y="60"/>
      <point x="133" y="27" type="curve"/>
      <point x="122" y="113" type="line"/>
      <point x="106" y="81"/>
      <point x="59" y="68"/>
    </contour>
  </outline>
</glyph>
<glyph name="laamu-thaana" format="2">
  <advance width="404"/>
  <unicode hex="078D"/>
  <anchor x="176" y="0" name="b.uni07A8"/>
  <anchor x="257" y="414" name="t.uni07A6"/>
  <outline>
    <contour>
      <point x="1" y="41" type="curve"/>
      <point x="41" y="-4"/>
      <point x="93" y="-48"/>
      <point x="150" y="-87" type="curve"/>
      <point x="251" y="31"/>
      <point x="353" y="151"/>
      <point x="380" y="186" type="curve"/>
      <point x="377" y="231"/>
      <point x="369" y="279"/>
      <point x="361" y="312" type="curve"/>
      <point x="305" y="312"/>
      <point x="243" y="312"/>
      <point x="173" y="309" type="curve"/>
      <point x="241" y="278" type="line"/>
      <point x="262" y="305"/>
      <point x="280" y="328"/>
      <point x="319" y="377" type="curve"/>
      <point x="226" y="449" type="line"/>
      <point x="176" y="390"/>
      <point x="117" y="323"/>
      <point x="76" y="283" type="curve"/>
      <point x="91" y="186" type="line"/>
      <point x="118" y="190"/>
      <point x="165" y="192"/>
      <point x="198" y="192" type="curve"/>
      <point x="224" y="266" type="line"/>
      <point x="165" y="206"/>
      <point x="68" y="108"/>
    </contour>
  </outline>
</glyph>
<glyph name="gaafu-thaana" format="2">
  <advance width="463"/>
  <unicode hex="078E"/>
  <anchor x="61" y="0" name="b.uni07A8"/>
  <anchor x="291" y="414" name="t.uni07A6"/>
  <outline>
    <contour>
      <point x="-4" y="17" type="curve"/>
      <point x="45" y="3"/>
      <point x="107" y="-8"/>
      <point x="174" y="-8" type="curve" smooth="yes"/>
      <point x="239" y="-8"/>
      <point x="326" y="1"/>
      <point x="389" y="30" type="curve"/>
      <point x="398" y="51"/>
      <point x="415" y="121"/>
      <point x="415" y="171" type="curve" smooth="yes"/>
      <point x="415" y="208"/>
      <point x="356" y="258"/>
      <point x="283" y="304" type="curve"/>
      <point x="259" y="207" type="line"/>
      <point x="298" y="257"/>
      <point x="345" y="316"/>
      <point x="384" y="363" type="curve"/>
      <point x="282" y="445" type="line"/>
      <point x="230" y="385"/>
      <point x="191" y="341"/>
      <point x="150" y="297" type="curve"/>
      <point x="157" y="206" type="line"/>
      <point x="192" y="192"/>
      <point x="233" y="171"/>
      <point x="269" y="143" type="curve"/>
      <point x="276" y="157" type="line"/>
      <point x="237" y="153"/>
      <point x="221" y="152"/>
      <point x="188" y="152" type="curve" smooth="yes"/>
      <point x="138" y="152"/>
      <point x="92" y="161"/>
      <point x="39" y="177" type="curve"/>
      <point x="23" y="132"/>
      <point x="5" y="65"/>
    </contour>
  </outline>
</glyph>
<glyph name="gnaviyani-thaana" format="2">
  <advance width="677"/>
  <unicode hex="078F"/>
  <anchor x="80" y="-40" name="b.uni07A8"/>
  <anchor x="440" y="414" name="t.uni07A6"/>
  <outline>
    <contour>
      <point x="51" y="82" type="curve" smooth="yes"/>
      <point x="51" y="-7"/>
      <point x="102" y="-87"/>
      <point x="238" y="-87" type="curve" smooth="yes"/>
      <point x="288" y="-87"/>
      <point x="319" y="-83"/>
      <point x="366" y="-74" type="curve"/>
      <point x="366" y="-6"/>
      <point x="361" y="57"/>
      <point x="356" y="101" type="curve"/>
      <point x="312" y="91"/>
      <point x="275" y="88"/>
      <point x="243" y="88" type="curve" smooth="yes"/>
      <point x="199" y="88"/>
      <point x="165" y="97"/>
      <point x="165" y="113" type="curve" smooth="yes"/>
      <point x="165" y="144"/>
      <point x="220" y="173"/>
      <point x="303" y="216" type="curve"/>
      <point x="182" y="288" type="line"/>
      <point x="103" y="220"/>
      <point x="51" y="171"/>
    </contour>
    <contour>
      <point x="166" y="190" type="line"/>
      <point x="208" y="174"/>
      <point x="232" y="169"/>
      <point x="272" y="169" type="curve" smooth="yes"/>
      <point x="332" y="169"/>
      <point x="381" y="191"/>
      <point x="395" y="204" type="curve" smooth="yes"/>
      <point x="462" y="268"/>
      <point x="477" y="334"/>
      <point x="491" y="397" type="curve"/>
      <point x="382" y="409" type="line"/>
      <point x="376" y="392"/>
      <point x="369" y="373"/>
      <point x="360" y="351" type="curve" smooth="yes"/>
      <point x="355" y="339"/>
      <point x="351" y="332"/>
      <point x="337" y="329" type="curve" smooth="yes"/>
      <point x="332" y="328"/>
      <point x="324" y="327"/>
      <point x="313" y="327" type="curve" smooth="yes"/>
      <point x="272" y="327"/>
      <point x="241" y="336"/>
      <point x="195" y="359" type="curve"/>
    </contour>
    <contour>
      <point x="328" y="204" type="line"/>
      <point x="375" y="176"/>
      <point x="428" y="168"/>
      <point x="476" y="168" type="curve" smooth="yes"/>
      <point x="526" y="168"/>
      <point x="589" y="179"/>
      <point x="622" y="220" type="curve" smooth="yes"/>
      <point x="659" y="266"/>
      <point x="679" y="348"/>
      <point x="687" y="408" type="curve"/>
      <point x="576" y="421" type="line"/>
      <point x="571" y="407"/>
      <point x="562" y="382"/>
      <point x="555" y="364" type="curve" smooth="yes"/>
      <point x="548" y="346"/>
      <point x="542" y="340"/>
      <point x="529" y="336" type="curve" smooth="yes"/>
      <point x="515" y="332"/>
      <point x="506" y="331"/>
      <point x="491" y="331" type="curve" smooth="yes"/>
      <point x="454" y="331"/>
      <point x="412" y="346"/>
      <point x="375" y="365" type="curve"/>
    </contour>
    <contour>
      <point x="72" y="303" type="curve" smooth="yes"/>
      <point x="72" y="199"/>
      <point x="192" y="186"/>
      <point x="282" y="186" type="curve"/>
      <point x="306" y="219"/>
      <point x="315" y="258"/>
      <point x="315" y="293" type="curve" smooth="yes"/>
      <point x="315" y="377"/>
      <point x="261" y="414"/>
      <point x="206" y="414" type="curve" smooth="yes"/>
      <point x="116" y="414"/>
      <point x="72" y="362"/>
    </contour>
  </outline>
</glyph>
<glyph name="seenu-thaana" format="2">
  <advance width="842"/>
  <unicode hex="0790"/>
  <anchor x="349" y="0" name="b.uni07A8"/>
  <anchor x="531" y="414" name="t.uni07A6"/>
  <outline>
    <contour>
      <point x="267" y="102" type="line"/>
      <point x="302" y="100"/>
      <point x="334" y="99"/>
      <point x="364" y="99" type="curve" smooth="yes"/>
      <point x="486" y="99"/>
      <point x="611" y="116"/>
      <point x="711" y="142" type="curve" smooth="yes"/>
      <point x="780" y="160"/>
      <point x="797" y="192"/>
      <point x="814" y="236" type="curve" smooth="yes"/>
      <point x="836" y="293"/>
      <point x="846" y="350"/>
      <point x="852" y="406" type="curve"/>
      <point x="740" y="417" type="line"/>
      <point x="729" y="380"/>
      <point x="723" y="361"/>
      <point x="712" y="330" type="curve" smooth="yes"/>
      <point x="706" y="312"/>
      <point x="701" y="300"/>
      <point x="651" y="289" type="curve" smooth="yes"/>
      <point x="611" y="280"/>
      <point x="525" y="263"/>
      <point x="420" y="263" type="curve" smooth="yes"/>
      <point x="378" y="263"/>
      <point x="351" y="264"/>
      <point x="315" y="266" type="curve"/>
    </contour>
    <contour>
      <point x="3" y="64" type="curve"/>
      <point x="47" y="19"/>
      <point x="96" y="-23"/>
      <point x="152" y="-64" type="curve"/>
      <point x="254" y="46"/>
      <point x="287" y="83"/>
      <point x="307" y="120" type="curve" smooth="yes"/>
      <point x="330" y="162"/>
      <point x="330" y="210"/>
      <point x="330" y="244" type="curve" smooth="yes"/>
      <point x="330" y="316"/>
      <point x="267" y="350"/>
      <point x="212" y="350" type="curve" smooth="yes"/>
      <point x="124" y="350"/>
      <point x="76" y="305"/>
      <point x="76" y="239" type="curve" smooth="yes"/>
      <point x="76" y="193"/>
      <point x="105" y="153"/>
      <point x="156" y="132" type="curve"/>
      <point x="138" y="193" type="line"/>
      <point x="105" y="160"/>
      <point x="44" y="102"/>
    </contour>
  </outline>
</glyph>
<glyph name="daviyani-thaana" format="2">
  <advance width="373"/>
  <unicode hex="0791"/>
  <anchor x="101" y="0" name="b.uni07A8"/>
  <anchor x="215" y="414" name="t.uni07A6"/>
  <outline>
    <contour>
      <point x="40" y="149" type="curve"/>
      <point x="58" y="9" type="line"/>
      <point x="125" y="-19"/>
      <point x="201" y="-49"/>
      <point x="263" y="-73" type="curve"/>
      <point x="335" y="81" type="line"/>
      <point x="262" y="108"/>
      <point x="212" y="127"/>
      <point x="148" y="153" type="curve"/>
      <point x="167" y="40" type="line"/>
      <point x="254" y="127"/>
      <point x="303" y="177"/>
      <point x="323" y="199" type="curve"/>
      <point x="323" y="229"/>
      <point x="320" y="268"/>
      <point x="314" y="304" type="curve"/>
      <point x="295" y="313"/>
      <point x="255" y="329"/>
      <point x="218" y="343" type="curve"/>
      <point x="232" y="309" type="line"/>
      <point x="267" y="346"/>
      <point x="286" y="367"/>
      <point x="309" y="394" type="curve"/>
      <point x="218" y="480" type="line"/>
      <point x="156" y="412"/>
      <point x="111" y="364"/>
      <point x="67" y="320" type="curve"/>
      <point x="91" y="235" type="line"/>
      <point x="130" y="228"/>
      <point x="185" y="217"/>
      <point x="247" y="204" type="curve"/>
      <point x="189" y="273" type="line"/>
      <point x="137" y="232"/>
      <point x="112" y="211"/>
    </contour>
  </outline>
</glyph>
<glyph name="zaviyani-thaana" format="2">
  <advance width="482"/>
  <unicode hex="0792"/>
  <anchor x="91" y="-30" name="b.uni07A8"/>
  <anchor x="364" y="414" name="t.uni07A6"/>
  <outline>
    <contour>
      <point x="87" y="82" type="curve" smooth="yes"/>
      <point x="87" y="-6"/>
      <point x="137" y="-87"/>
      <point x="274" y="-87" type="curve" smooth="yes"/>
      <point x="316" y="-87"/>
      <point x="351" y="-85"/>
      <point x="399" y="-77" type="curve"/>
      <point x="399" y="-4"/>
      <point x="394" y="54"/>
      <point x="389" y="98" type="curve"/>
      <point x="352" y="91"/>
      <point x="315" y="88"/>
      <point x="279" y="88" type="curve" smooth="yes"/>
      <point x="235" y="88"/>
      <point x="201" y="97"/>
      <point x="201" y="113" type="curve" smooth="yes"/>
      <point x="201" y="134"/>
      <point x="232" y="155"/>
      <point x="284" y="184" type="curve"/>
      <point x="147" y="234" type="line"/>
      <point x="106" y="186"/>
      <point x="87" y="146"/>
    </contour>
    <contour>
      <point x="41" y="206" type="curve"/>
      <point x="129" y="185"/>
      <point x="361" y="134"/>
      <point x="417" y="125" type="curve"/>
      <point x="448" y="251" type="line"/>
      <point x="393" y="261"/>
      <point x="361" y="267"/>
      <point x="331" y="273" type="curve"/>
      <point x="359" y="253" type="line"/>
      <point x="357" y="270"/>
      <point x="364" y="278"/>
      <point x="385" y="299" type="curve" smooth="yes"/>
      <point x="434" y="346" type="line"/>
      <point x="293" y="444" type="line"/>
      <point x="218" y="361" type="line" smooth="yes"/>
      <point x="190" y="330"/>
      <point x="186" y="322"/>
      <point x="186" y="309" type="curve" smooth="yes"/>
      <point x="186" y="288"/>
      <point x="212" y="263"/>
      <point x="252" y="249" type="curve"/>
      <point x="283" y="284" type="line"/>
      <point x="207" y="301"/>
      <point x="146" y="317"/>
      <point x="66" y="342" type="curve"/>
      <point x="53" y="293"/>
      <point x="42" y="234"/>
    </contour>
  </outline>
</glyph>
<glyph name="taviyani-thaana" format="2">
  <advance width="508"/>
  <unicode hex="0793"/>
  <anchor x="66" y="-30" name="b.uni07A8"/>
  <anchor x="317" y="414" name="t.uni07A6"/>
  <outline>
    <contour>
      <point x="33" y="68" type="curve" smooth="yes"/>
      <point x="33" y="-13"/>
      <point x="83" y="-87"/>
      <point x="219" y="-87" type="curve" smooth="yes"/>
      <point x="262" y="-87"/>
      <point x="297" y="-84"/>
      <point x="347" y="-74" type="curve"/>
      <point x="347" y="-11"/>
      <point x="342" y="52"/>
      <point x="337" y="96" type="curve"/>
      <point x="293" y="86"/>
      <point x="255" y="83"/>
      <point x="224" y="83" type="curve" smooth="yes"/>
      <point x="178" y="83"/>
      <point x="147" y="90"/>
      <point x="147" y="100" type="curve" smooth="yes"/>
      <point x="147" y="114"/>
      <point x="181" y="126"/>
      <point x="235" y="144" type="curve"/>
      <point x="132" y="214" type="line"/>
      <point x="58" y="162"/>
      <point x="33" y="128"/>
    </contour>
    <contour>
      <point x="72" y="256" type="curve" smooth="yes"/>
      <point x="72" y="152"/>
      <point x="144" y="114"/>
      <point x="228" y="114" type="curve" smooth="yes"/>
      <point x="366" y="114"/>
      <point x="512" y="187"/>
      <point x="512" y="322" type="curve" smooth="yes"/>
      <point x="512" y="393"/>
      <point x="472" y="453"/>
      <point x="406" y="453" type="curve" smooth="yes"/>
      <point x="355" y="453"/>
      <point x="313" y="418"/>
      <point x="281" y="348" type="curve"/>
      <point x="313" y="285" type="line"/>
      <point x="332" y="310"/>
      <point x="368" y="323"/>
      <point x="386" y="323" type="curve" smooth="yes"/>
      <point x="401" y="323"/>
      <point x="412" y="318"/>
      <point x="412" y="314" type="curve" smooth="yes"/>
      <point x="412" y="276"/>
      <point x="273" y="247"/>
      <point x="236" y="247" type="curve" smooth="yes"/>
      <point x="210" y="247"/>
      <point x="188" y="254"/>
      <point x="173" y="265" type="curve"/>
      <point x="182" y="276"/>
      <point x="201" y="292"/>
      <point x="228" y="292" type="curve" smooth="yes"/>
      <point x="248" y="292"/>
      <point x="261" y="283"/>
      <point x="261" y="272" type="curve" smooth="yes"/>
      <point x="261" y="260"/>
      <point x="252" y="249"/>
      <point x="230" y="228" type="curve"/>
      <point x="302" y="198" type="line"/>
      <point x="315" y="226"/>
      <point x="333" y="267"/>
      <point x="333" y="306" type="curve" smooth="yes"/>
      <point x="333" y="361"/>
      <point x="301" y="423"/>
      <point x="231" y="423" type="curve" smooth="yes"/>
      <point x="151" y="423"/>
      <point x="72" y="355"/>
    </contour>
  </outline>
</glyph>
<glyph name="yaa-thaana" format="2">
  <advance width="657"/>
  <unicode hex="0794"/>
  <anchor x="156" y="0" name="b.uni07A8"/>
  <anchor x="455" y="414" name="t.uni07A6"/>
  <outline>
    <contour>
      <point x="337" y="375" type="curve"/>
      <point x="337" y="200" type="line"/>
      <point x="406" y="222"/>
      <point x="471" y="243"/>
      <point x="520" y="265" type="curve"/>
      <point x="502" y="336" type="line"/>
      <point x="453" y="235"/>
      <point x="401" y="140"/>
      <point x="377" y="99" type="curve"/>
      <point x="562" y="49" type="line"/>
      <point x="582" y="109"/>
      <point x="628" y="271"/>
      <point x="643" y="335" type="curve"/>
      <point x="562" y="416" type="line"/>
      <point x="459" y="393"/>
      <point x="405" y="383"/>
    </contour>
    <component base="_part.haa" xOffset="-160"/>
  </outline>
</glyph>
<glyph name="javiyani-thaana" format="2">
  <advance width="591"/>
  <unicode hex="0796"/>
  <anchor x="64" y="-40" name="b.uni07A8"/>
  <anchor x="254" y="414" name="t.uni07A6"/>
  <outline>
    <contour>
      <point x="35" y="82" type="curve" smooth="yes"/>
      <point x="35" y="-6"/>
      <point x="85" y="-87"/>
      <point x="223" y="-87" type="curve" smooth="yes"/>
      <point x="265" y="-87"/>
      <point x="301" y="-84"/>
      <point x="350" y="-74" type="curve"/>
      <point x="350" y="1"/>
      <point x="345" y="59"/>
      <point x="340" y="101" type="curve"/>
      <point x="296" y="91"/>
      <point x="259" y="88"/>
      <point x="227" y="88" type="curve" smooth="yes"/>
      <point x="183" y="88"/>
      <point x="149" y="97"/>
      <point x="149" y="111" type="curve" smooth="yes"/>
      <point x="149" y="131"/>
      <point x="213" y="149"/>
      <point x="328" y="171" type="curve"/>
      <point x="235" y="258" type="line"/>
      <point x="92" y="229"/>
      <point x="35" y="165"/>
    </contour>
    <contour>
      <point x="76" y="273" type="curve" smooth="yes"/>
      <point x="76" y="182"/>
      <point x="145" y="171"/>
      <point x="260" y="171" type="curve"/>
      <point x="305" y="199"/>
      <point x="322" y="233"/>
      <point x="322" y="263" type="curve" smooth="yes"/>
      <point x="322" y="347"/>
      <point x="267" y="384"/>
      <point x="210" y="384" type="curve" smooth="yes"/>
      <point x="120" y="384"/>
      <point x="76" y="332"/>
    </contour>
    <component base="_part.jav" xOffset="-16" yOffset="-80"/>
  </outline>
</glyph>
<glyph name="chaviyani-thaana" format="2">
  <advance width="532"/>
  <unicode hex="0797"/>
  <anchor x="192" y="0" name="b.uni07A8"/>
  <anchor x="196" y="414" name="t.uni07A6"/>
  <outline>
    <contour>
      <point x="171" y="320" type="line"/>
      <point x="318" y="281" type="line"/>
      <point x="549" y="479" type="line"/>
      <point x="453" y="586" type="line"/>
    </contour>
    <component base="thaa-thaana" xOffset="-6"/>
  </outline>
</glyph>
<glyph name="ttaa-thaana" format="2">
  <advance width="576"/>
  <unicode hex="0798"/>
  <anchor x="253" y="0" name="b.uni07A8"/>
  <anchor x="409" y="414" name="t.uni07A6"/>
  <outline>
    <contour>
      <point x="162" y="316" type="curve" smooth="yes"/>
      <point x="188" y="339"/>
      <point x="188" y="364"/>
      <point x="165" y="392" type="curve" smooth="yes"/>
      <point x="142" y="419"/>
      <point x="117" y="411"/>
      <point x="90" y="389" type="curve" smooth="yes"/>
      <point x="64" y="366"/>
      <point x="64" y="341"/>
      <point x="87" y="313" type="curve" smooth="yes"/>
      <point x="110" y="286"/>
      <point x="135" y="294"/>
    </contour>
    <contour>
      <point x="146" y="461" type="curve" smooth="yes"/>
      <point x="172" y="483"/>
      <point x="173" y="508"/>
      <point x="149" y="536" type="curve" smooth="yes"/>
      <point x="126" y="563"/>
      <point x="101" y="555"/>
      <point x="74" y="532" type="curve" smooth="yes"/>
      <point x="48" y="510"/>
      <point x="47" y="485"/>
      <point x="71" y="457" type="curve" smooth="yes"/>
      <point x="94" y="430"/>
      <point x="119" y="438"/>
    </contour>
    <contour>
      <point x="276" y="412" type="curve" smooth="yes"/>
      <point x="302" y="435"/>
      <point x="302" y="459"/>
      <point x="280" y="488" type="curve" smooth="yes"/>
      <point x="256" y="515"/>
      <point x="231" y="507"/>
      <point x="204" y="485" type="curve" smooth="yes"/>
      <point x="178" y="462"/>
      <point x="178" y="438"/>
      <point x="200" y="409" type="curve" smooth="yes"/>
      <point x="224" y="382"/>
      <point x="249" y="390"/>
    </contour>
    <component base="thaa-thaana" xOffset="55"/>
  </outline>
</glyph>
<glyph name="sheenu-thaana" format="2">
  <advance width="842"/>
  <unicode hex="079D"/>
  <anchor x="417" y="0" name="b.uni07A8"/>
  <anchor x="521" y="461" name="t.uni07A6"/>
  <outline>
    <contour>
      <point x="432" y="314" type="curve" smooth="yes"/>
      <point x="469" y="314"/>
      <point x="487" y="328"/>
      <point x="487" y="362" type="curve" smooth="yes"/>
      <point x="487" y="403"/>
      <point x="470" y="414"/>
      <point x="437" y="414" type="curve" smooth="yes"/>
      <point x="397" y="414"/>
      <point x="379" y="395"/>
      <point x="379" y="358" type="curve" smooth="yes"/>
      <point x="379" y="324"/>
      <point x="401" y="314"/>
    </contour>
    <contour>
      <point x="504" y="447" type="curve" smooth="yes"/>
      <point x="541" y="447"/>
      <point x="559" y="461"/>
      <point x="559" y="495" type="curve" smooth="yes"/>
      <point x="559" y="536"/>
      <point x="542" y="547"/>
      <point x="509" y="547" type="curve" smooth="yes"/>
      <point x="469" y="547"/>
      <point x="451" y="528"/>
      <point x="451" y="491" type="curve" smooth="yes"/>
      <point x="451" y="457"/>
      <point x="473" y="447"/>
    </contour>
    <contour>
      <point x="595" y="323" type="curve" smooth="yes"/>
      <point x="626" y="323"/>
      <point x="641" y="338"/>
      <point x="641" y="370" type="curve" smooth="yes"/>
      <point x="641" y="411"/>
      <point x="624" y="422"/>
      <point x="591" y="422" type="curve" smooth="yes"/>
      <point x="548" y="422"/>
      <point x="533" y="400"/>
      <point x="533" y="359" type="curve" smooth="yes"/>
      <point x="533" y="328"/>
      <point x="562" y="323"/>
    </contour>
    <component base="seenu-thaana"/>
  </outline>
</glyph>
<glyph name="qaafu-thaana" format="2">
  <advance width="493"/>
  <unicode hex="07A4"/>
  <anchor x="124" y="0" name="b.uni07A8"/>
  <anchor x="324" y="414" name="t.uni07A6"/>
  <outline>
    <contour>
      <point x="139" y="315" type="curve" smooth="yes"/>
      <point x="161" y="341"/>
      <point x="158" y="366"/>
      <point x="132" y="388" type="curve" smooth="yes"/>
      <point x="105" y="411"/>
      <point x="80" y="401"/>
      <point x="57" y="374" type="curve" smooth="yes"/>
      <point x="35" y="348"/>
      <point x="38" y="323"/>
      <point x="64" y="301" type="curve" smooth="yes"/>
      <point x="91" y="278"/>
      <point x="116" y="288"/>
    </contour>
    <contour>
      <point x="228" y="414" type="curve" smooth="yes"/>
      <point x="250" y="440"/>
      <point x="247" y="464"/>
      <point x="221" y="487" type="curve" smooth="yes"/>
      <point x="194" y="510"/>
      <point x="169" y="500"/>
      <point x="146" y="473" type="curve" smooth="yes"/>
      <point x="124" y="447"/>
      <point x="127" y="423"/>
      <point x="153" y="400" type="curve" smooth="yes"/>
      <point x="180" y="377"/>
      <point x="205" y="387"/>
    </contour>
    <component base="gaafu-thaana" xOffset="30"/>
  </outline>
</glyph>
<glyph name="abafili-thaana" format="2">
  <unicode hex="07A6"/>
  <anchor x="199" y="414" name="_t.uni07A6"/>
  <outline>
    <contour>
      <point x="354" y="706" type="curve"/>
      <point x="291" y="752" type="line"/>
      <point x="267" y="722"/>
      <point x="180" y="638"/>
      <point x="127" y="588" type="curve"/>
      <point x="145" y="567"/>
      <point x="174" y="542"/>
      <point x="201" y="530" type="curve"/>
      <point x="256" y="582"/>
      <point x="319" y="656"/>
    </contour>
  </outline>
</glyph>
<glyph name="aabaafili-thaana" format="2">
  <unicode hex="07A7"/>
  <anchor x="223" y="414" name="_t.uni07A6"/>
  <outline>
    <contour>
      <point x="412" y="677" type="curve"/>
      <point x="348" y="721" type="line"/>
      <point x="326" y="694"/>
      <point x="253" y="618"/>
      <point x="207" y="573" type="curve"/>
      <point x="227" y="553"/>
      <point x="255" y="529"/>
      <point x="283" y="517" type="curve"/>
      <point x="330" y="566"/>
      <point x="382" y="631"/>
    </contour>
    <contour>
      <point x="286" y="725" type="curve"/>
      <point x="226" y="774" type="line"/>
      <point x="203" y="750"/>
      <point x="122" y="681"/>
      <point x="73" y="640" type="curve"/>
      <point x="90" y="618"/>
      <point x="117" y="592"/>
      <point x="144" y="578" type="curve"/>
      <point x="195" y="622"/>
      <point x="252" y="683"/>
    </contour>
  </outline>
</glyph>
<glyph name="ibifili-thaana" format="2">
  <unicode hex="07A8"/>
  <anchor x="108" y="0" name="_b.uni07A8"/>
  <outline>
    <contour>
      <point x="258" y="-154" type="curve"/>
      <point x="195" y="-108" type="line"/>
      <point x="171" y="-138"/>
      <point x="82" y="-223"/>
      <point x="28" y="-272" type="curve"/>
      <point x="47" y="-293"/>
      <point x="76" y="-317"/>
      <point x="104" y="-329" type="curve"/>
      <point x="160" y="-277"/>
      <point x="222" y="-203"/>
    </contour>
  </outline>
</glyph>
<glyph name="eebeefili-thaana" format="2">
  <unicode hex="07A9"/>
  <anchor x="117" y="0" name="_b.uni07A8"/>
  <outline>
    <contour>
      <point x="215" y="-147" type="curve"/>
      <point x="155" y="-98" type="line"/>
      <point x="132" y="-122"/>
      <point x="51" y="-191"/>
      <point x="2" y="-232" type="curve"/>
      <point x="19" y="-254"/>
      <point x="46" y="-280"/>
      <point x="73" y="-294" type="curve"/>
      <point x="124" y="-250"/>
      <point x="181" y="-189"/>
    </contour>
    <contour>
      <point x="341" y="-195" type="curve"/>
      <point x="277" y="-151" type="line"/>
      <point x="255" y="-178"/>
      <point x="182" y="-254"/>
      <point x="136" y="-299" type="curve"/>
      <point x="156" y="-319"/>
      <point x="184" y="-343"/>
      <point x="212" y="-355" type="curve"/>
      <point x="259" y="-306"/>
      <point x="311" y="-241"/>
    </contour>
  </outline>
</glyph>
<glyph name="ebefili-thaana" format="2">
  <unicode hex="07AC"/>
  <anchor x="102" y="414" name="_t.uni07A6"/>
  <outline>
    <contour>
      <point x="105" y="592" type="line"/>
      <point x="105" y="624" type="line"/>
      <point x="96" y="610" type="line"/>
      <point x="126" y="627"/>
      <point x="173" y="658"/>
      <point x="203" y="678" type="curve"/>
      <point x="192" y="703"/>
      <point x="180" y="730"/>
      <point x="168" y="753" type="curve"/>
      <point x="107" y="711"/>
      <point x="53" y="670"/>
      <point x="41" y="654" type="curve" smooth="yes"/>
      <point x="28" y="637"/>
      <point x="22" y="607"/>
      <point x="22" y="589" type="curve" smooth="yes"/>
      <point x="22" y="549"/>
      <point x="61" y="524"/>
      <point x="120" y="524" type="curve" smooth="yes"/>
      <point x="149" y="524"/>
      <point x="171" y="530"/>
      <point x="189" y="540" type="curve"/>
      <point x="189" y="562"/>
      <point x="187" y="589"/>
      <point x="184" y="619" type="curve"/>
      <point x="175" y="624" type="line"/>
      <point x="160" y="617"/>
      <point x="133" y="610"/>
      <point x="112" y="610" type="curve" smooth="yes"/>
      <point x="107" y="610"/>
      <point x="92" y="610"/>
      <point x="75" y="610" type="curve"/>
    </contour>
  </outline>
</glyph>
<glyph name="obofili-thaana" format="2">
  <unicode hex="07AE"/>
  <anchor x="245" y="415" name="_t.uni07A6"/>
  <outline>
    <contour>
      <point x="215" y="588" type="curve" smooth="yes"/>
      <point x="215" y="547"/>
      <point x="253" y="523"/>
      <point x="313" y="523" type="curve" smooth="yes"/>
      <point x="344" y="523"/>
      <point x="368" y="527"/>
      <point x="388" y="532" type="curve"/>
      <point x="387" y="553"/>
      <point x="385" y="580"/>
      <point x="382" y="611" type="curve"/>
      <point x="374" y="616" type="line"/>
      <point x="357" y="612"/>
      <point x="332" y="608"/>
      <point x="315" y="608" type="curve" smooth="yes"/>
      <point x="296" y="608"/>
      <point x="283" y="611"/>
      <point x="269" y="616" type="curve"/>
      <point x="267" y="596" type="line"/>
      <point x="308" y="621"/>
      <point x="374" y="654"/>
      <point x="412" y="672" type="curve"/>
      <point x="404" y="698"/>
      <point x="389" y="734"/>
      <point x="379" y="756" type="curve"/>
      <point x="306" y="716"/>
      <point x="247" y="677"/>
      <point x="235" y="662" type="curve" smooth="yes"/>
      <point x="221" y="644"/>
      <point x="215" y="609"/>
    </contour>
    <contour>
      <point x="114" y="602" type="curve"/>
      <point x="125" y="573"/>
      <point x="139" y="538"/>
      <point x="148" y="521" type="curve"/>
      <point x="217" y="559"/>
      <point x="277" y="596"/>
      <point x="289" y="612" type="curve" smooth="yes"/>
      <point x="303" y="630"/>
      <point x="308" y="665"/>
      <point x="308" y="686" type="curve" smooth="yes"/>
      <point x="308" y="727"/>
      <point x="269" y="751"/>
      <point x="210" y="751" type="curve" smooth="yes"/>
      <point x="178" y="751"/>
      <point x="152" y="745"/>
      <point x="133" y="737" type="curve"/>
      <point x="133" y="717"/>
      <point x="135" y="689"/>
      <point x="139" y="658" type="curve"/>
      <point x="147" y="654" type="line"/>
      <point x="164" y="660"/>
      <point x="190" y="666"/>
      <point x="208" y="666" type="curve" smooth="yes"/>
      <point x="227" y="666"/>
      <point x="240" y="663"/>
      <point x="254" y="658" type="curve"/>
      <point x="257" y="677" type="line"/>
      <point x="217" y="652"/>
      <point x="152" y="619"/>
    </contour>
  </outline>
</glyph>
<glyph name="oaboafili-thaana" format="2">
  <unicode hex="07AF"/>
  <anchor x="193" y="414" name="_t.uni07A6"/>
  <outline>
    <contour>
      <point x="121" y="606" type="curve" smooth="yes"/>
      <point x="121" y="555"/>
      <point x="155" y="521"/>
      <point x="221" y="521" type="curve" smooth="yes"/>
      <point x="251" y="521"/>
      <point x="281" y="527"/>
      <point x="294" y="532" type="curve"/>
      <point x="272" y="617" type="line"/>
      <point x="255" y="611"/>
      <point x="243" y="608"/>
      <point x="233" y="608" type="curve" smooth="yes"/>
      <point x="222" y="608"/>
      <point x="215" y="613"/>
      <point x="215" y="623" type="curve" smooth="yes"/>
      <point x="215" y="645"/>
      <point x="253" y="686"/>
      <point x="270" y="686" type="curve" smooth="yes"/>
      <point x="279" y="686"/>
      <point x="281" y="682"/>
      <point x="281" y="678" type="curve" smooth="yes"/>
      <point x="281" y="672"/>
      <point x="275" y="657"/>
      <point x="267" y="643" type="curve"/>
      <point x="349" y="617" type="line"/>
      <point x="361" y="649"/>
      <point x="367" y="670"/>
      <point x="367" y="693" type="curve" smooth="yes"/>
      <point x="367" y="742"/>
      <point x="333" y="773"/>
      <point x="285" y="773" type="curve" smooth="yes"/>
      <point x="206" y="773"/>
      <point x="121" y="687"/>
    </contour>
  </outline>
</glyph>
<glyph name="sukun-thaana" format="2">
  <unicode hex="07B0"/>
  <anchor x="113" y="414" name="_t.uni07A6"/>
  <outline>
    <contour>
      <point x="162" y="746" type="curve" smooth="yes"/>
      <point x="119" y="746"/>
      <point x="80" y="720"/>
      <point x="63" y="679" type="curve" smooth="yes"/>
      <point x="55" y="659"/>
      <point x="50" y="627"/>
      <point x="50" y="616" type="curve" smooth="yes"/>
      <point x="50" y="567"/>
      <point x="89" y="527"/>
      <point x="144" y="527" type="curve" smooth="yes"/>
      <point x="170" y="527"/>
      <point x="195" y="535"/>
      <point x="212" y="552" type="curve" smooth="yes"/>
      <point x="240" y="580"/>
      <point x="250" y="623"/>
      <point x="250" y="653" type="curve" smooth="yes"/>
      <point x="250" y="710"/>
      <point x="210" y="746"/>
    </contour>
    <contour>
      <point x="117" y="641" type="curve" smooth="yes"/>
      <point x="117" y="645"/>
      <point x="125" y="660"/>
      <point x="146" y="660" type="curve" smooth="yes"/>
      <point x="167" y="660"/>
      <point x="181" y="646"/>
      <point x="181" y="635" type="curve" smooth="yes"/>
      <point x="181" y="624"/>
      <point x="163" y="616"/>
      <point x="150" y="616" type="curve" smooth="yes"/>
      <point x="128" y="616"/>
      <point x="117" y="633"/>
    </contour>
  </outline>
</glyph>
<glyph name="naa-thaana" format="2">
  <advance width="419"/>
  <unicode hex="07B1"/>
  <anchor x="74" y="-40" name="b.uni07A8"/>
  <anchor x="344" y="414" name="t.uni07A6"/>
  <outline>
    <contour>
      <point x="25" y="57" type="curve" smooth="yes"/>
      <point x="25" y="-23"/>
      <point x="81" y="-87"/>
      <point x="230" y="-87" type="curve" smooth="yes"/>
      <point x="267" y="-87"/>
      <point x="299" y="-83"/>
      <point x="340" y="-73" type="curve"/>
      <point x="340" y="-24"/>
      <point x="336" y="58"/>
      <point x="330" y="101" type="curve"/>
      <point x="294" y="93"/>
      <point x="256" y="89"/>
      <point x="221" y="89" type="curve" smooth="yes"/>
      <point x="191" y="89"/>
      <point x="183" y="92"/>
      <point x="183" y="96" type="curve" smooth="yes"/>
      <point x="183" y="101"/>
      <point x="196" y="107"/>
      <point x="283" y="144" type="curve" smooth="yes"/>
      <point x="362" y="178"/>
      <point x="394" y="220"/>
      <point x="394" y="277" type="curve" smooth="yes"/>
      <point x="394" y="368"/>
      <point x="312" y="414"/>
      <point x="232" y="414" type="curve" smooth="yes"/>
      <point x="151" y="414"/>
      <point x="68" y="370"/>
      <point x="68" y="283" type="curve" smooth="yes"/>
      <point x="68" y="218"/>
      <point x="123" y="164"/>
      <point x="212" y="135" type="curve"/>
      <point x="268" y="177" type="line"/>
      <point x="215" y="197"/>
      <point x="184" y="219"/>
      <point x="184" y="242" type="curve" smooth="yes"/>
      <point x="184" y="269"/>
      <point x="221" y="286"/>
      <point x="256" y="286" type="curve" smooth="yes"/>
      <point x="270" y="286"/>
      <point x="278" y="281"/>
      <point x="278" y="274" type="curve" smooth="yes"/>
      <point x="278" y="264"/>
      <point x="268" y="242"/>
      <point x="162" y="203" type="curve" smooth="yes"/>
      <point x="50" y="162"/>
      <point x="25" y="110"/>
    </contour>
  </outline>
</glyph>
<glyph name="quoteleft" format="2">
  <advance width="247"/>
  <unicode hex="2018"/>
  <outline>
    <contour>
      <point x="114" y="515" type="curve" smooth="yes"/>
      <point x="184" y="515"/>
      <point x="212" y="537"/>
      <point x="212" y="581" type="curve" smooth="yes"/>
      <point x="212" y="624"/>
      <point x="202" y="633"/>
      <point x="157" y="645" type="curve"/>
      <point x="159" y="657"/>
      <point x="186" y="705"/>
      <point x="211" y="742" type="curve"/>
      <point x="107" y="791" type="line"/>
      <point x="65" y="726"/>
      <point x="20" y="634"/>
      <point x="20" y="584" type="curve" smooth="yes"/>
      <point x="20" y="535"/>
      <point x="56" y="515"/>
    </contour>
  </outline>
</glyph>
<glyph name="bismillah-ar" format="2">
  <advance width="1942"/>
  <unicode hex="FDFD"/>
  <outline>
    <contour>
      <point x="908" y="185" type="curve"/>
      <point x="958" y="192" type="line"/>
      <point x="948" y="233"/>
      <point x="933" y="298"/>
      <point x="933" y="327" type="curve" smooth="yes"/>
      <point x="933" y="375"/>
      <point x="950" y="426"/>
      <point x="1018" y="441" type="curve"/>
      <point x="1040" y="375"/>
      <point x="1052" y="340"/>
      <point x="1105" y="334" type="curve" smooth="yes"/>
      <point x="1146" y="331"/>
      <point x="1256" y="329"/>
      <point x="1296" y="334" type="curve" smooth="yes"/>
      <point x="1333" y="340"/>
      <point x="1353" y="340"/>
      <point x="1365" y="379" type="curve"/>
      <point x="1355" y="378" type="line"/>
      <point x="1356" y="341"/>
      <point x="1384" y="334"/>
      <point x="1404" y="334" type="curve" smooth="yes"/>
      <point x="1443" y="334"/>
      <point x="1455" y="341"/>
      <point x="1471" y="374" type="curve"/>
      <point x="1457" y="374" type="line"/>
      <point x="1461" y="347"/>
      <point x="1476" y="334"/>
      <point x="1511" y="334" type="curve" smooth="yes"/>
      <point x="1540" y="334"/>
      <point x="1562" y="344"/>
      <point x="1571" y="378" type="curve"/>
      <point x="1563" y="380" type="line"/>
      <point x="1569" y="355"/>
      <point x="1590" y="334"/>
      <point x="1626" y="334" type="curve" smooth="yes"/>
      <point x="1680" y="334"/>
      <point x="1709" y="351"/>
      <point x="1709" y="410" type="curve" smooth="yes"/>
      <point x="1709" y="432"/>
      <point x="1705" y="451"/>
      <point x="1700" y="473" type="curve"/>
      <point x="1651" y="461" type="line"/>
      <point x="1655" y="446"/>
      <point x="1660" y="430"/>
      <point x="1660" y="415" type="curve" smooth="yes"/>
      <point x="1660" y="393"/>
      <point x="1650" y="386"/>
      <point x="1629" y="386" type="curve" smooth="yes"/>
      <point x="1595" y="386"/>
      <point x="1589" y="407"/>
      <point x="1583" y="490" type="curve"/>
      <point x="1536" y="488" type="line"/>
      <point x="1540" y="455"/>
      <point x="1540" y="437"/>
      <point x="1540" y="419" type="curve" smooth="yes"/>
      <point x="1540" y="397"/>
      <point x="1533" y="386"/>
      <point x="1514" y="386" type="curve" smooth="yes"/>
      <point x="1491" y="386"/>
      <point x="1488" y="396"/>
      <point x="1488" y="407" type="curve" smooth="yes"/>
      <point x="1488" y="420"/>
      <point x="1492" y="441"/>
      <point x="1495" y="460" type="curve"/>
      <point x="1445" y="465" type="line"/>
      <point x="1436" y="390"/>
      <point x="1434" y="386"/>
      <point x="1408" y="386" type="curve" smooth="yes"/>
      <point x="1391" y="386"/>
      <point x="1386" y="394"/>
      <point x="1386" y="407" type="curve" smooth="yes"/>
      <point x="1386" y="418"/>
      <point x="1392" y="441"/>
      <point x="1395" y="455" type="curve"/>
      <point x="1343" y="463" type="line"/>
      <point x="1332" y="386"/>
      <point x="1325" y="390"/>
      <point x="1293" y="386" type="curve" smooth="yes"/>
      <point x="1250" y="381"/>
      <point x="1156" y="380"/>
      <point x="1109" y="386" type="curve" smooth="yes"/>
      <point x="1092" y="389"/>
      <point x="1088" y="397"/>
      <point x="1073" y="440" type="curve" smooth="yes"/>
      <point x="1057" y="487"/>
      <point x="1049" y="496"/>
      <point x="1030" y="496" type="curve" smooth="yes"/>
      <point x="990" y="496"/>
      <point x="882" y="451"/>
      <point x="882" y="327" type="curve" smooth="yes"/>
      <point x="882" y="305"/>
      <point x="890" y="244"/>
    </contour>
    <contour>
      <point x="179" y="-6" type="curve" smooth="yes"/>
      <point x="204" y="-6"/>
      <point x="218" y="3"/>
      <point x="227" y="19" type="curve"/>
      <point x="206" y="61" type="line"/>
      <point x="188" y="31"/>
      <point x="143" y="48"/>
      <point x="117" y="107" type="curve"/>
      <point x="86" y="67" type="line"/>
      <point x="118" y="0"/>
      <point x="158" y="-6"/>
    </contour>
    <contour>
      <point x="318" y="-170" type="line"/>
      <point x="356" y="-170" type="line"/>
      <point x="354" y="-103" type="line"/>
      <point x="316" y="-103" type="line"/>
    </contour>
    <contour>
      <point x="304" y="-90" type="curve" smooth="yes"/>
      <point x="318" y="-90"/>
      <point x="329" y="-78"/>
      <point x="329" y="-64" type="curve" smooth="yes"/>
      <point x="329" y="-51"/>
      <point x="318" y="-39"/>
      <point x="304" y="-39" type="curve" smooth="yes"/>
      <point x="287" y="-39"/>
      <point x="277" y="-51"/>
      <point x="277" y="-64" type="curve" smooth="yes"/>
      <point x="277" y="-78"/>
      <point x="287" y="-90"/>
    </contour>
    <contour>
      <point x="369" y="-90" type="curve" smooth="yes"/>
      <point x="383" y="-90"/>
      <point x="394" y="-78"/>
      <point x="394" y="-64" type="curve" smooth="yes"/>
      <point x="394" y="-51"/>
      <point x="383" y="-39"/>
      <point x="369" y="-39" type="curve" smooth="yes"/>
      <point x="352" y="-39"/>
      <point x="342" y="-51"/>
      <point x="342" y="-64" type="curve" smooth="yes"/>
      <point x="342" y="-78"/>
      <point x="352" y="-90"/>
    </contour>
    <contour>
      <point x="61" y="-151" type="curve"/>
      <point x="111" y="-144" type="line"/>
      <point x="101" y="-103"/>
      <point x="86" y="-38"/>
      <point x="86" y="-9" type="curve" smooth="yes"/>
      <point x="86" y="39"/>
      <point x="103" y="90"/>
      <point x="171" y="105" type="curve"/>
      <point x="193" y="39"/>
      <point x="205" y="-2"/>
      <point x="261" y="-2" type="curve" smooth="yes"/>
      <point x="291" y="-2"/>
      <point x="317" y="6"/>
      <point x="329" y="36" type="curve"/>
      <point x="319" y="34" type="line"/>
      <point x="324" y="12"/>
      <point x="345" y="-2"/>
      <point x="378" y="-2" type="curve" smooth="yes"/>
      <point x="476" y="-2"/>
      <point x="516" y="60"/>
      <point x="577" y="60" type="curve"/>
      <point x="573" y="109" type="line"/>
      <point x="565" y="109" type="line" smooth="yes"/>
      <point x="516" y="109"/>
      <point x="496" y="157"/>
      <point x="430" y="157" type="curve" smooth="yes"/>
      <point x="415" y="157"/>
      <point x="401" y="154"/>
      <point x="387" y="149" type="curve"/>
      <point x="393" y="100" type="line"/>
      <point x="408" y="104"/>
      <point x="416" y="104"/>
      <point x="430" y="104" type="curve" smooth="yes"/>
      <point x="445" y="104"/>
      <point x="471" y="95"/>
      <point x="494" y="83" type="curve"/>
      <point x="464" y="69"/>
      <point x="417" y="49"/>
      <point x="379" y="49" type="curve" smooth="yes"/>
      <point x="357" y="49"/>
      <point x="347" y="55"/>
      <point x="343" y="75" type="curve" smooth="yes"/>
      <point x="341" y="84"/>
      <point x="332" y="127"/>
      <point x="326" y="155" type="curve"/>
      <point x="276" y="147" type="line"/>
      <point x="283" y="117"/>
      <point x="287" y="93"/>
      <point x="288" y="80" type="curve" smooth="yes"/>
      <point x="293" y="54"/>
      <point x="282" y="49"/>
      <point x="265" y="49" type="curve" smooth="yes"/>
      <point x="245" y="49"/>
      <point x="241" y="61"/>
      <point x="226" y="104" type="curve" smooth="yes"/>
      <point x="210" y="151"/>
      <point x="202" y="160"/>
      <point x="183" y="160" type="curve" smooth="yes"/>
      <point x="143" y="160"/>
      <point x="35" y="115"/>
      <point x="35" y="-9" type="curve" smooth="yes"/>
      <point x="35" y="-31"/>
      <point x="43" y="-92"/>
    </contour>
    <contour>
      <point x="215" y="207" type="line"/>
      <point x="378" y="275" type="line"/>
      <point x="378" y="311" type="line"/>
      <point x="215" y="244" type="line"/>
    </contour>
    <contour>
      <point x="384" y="175" type="line"/>
      <point x="546" y="242" type="line"/>
      <point x="546" y="279" type="line"/>
      <point x="384" y="211" type="line"/>
    </contour>
    <contour>
      <point x="517" y="-84" type="line"/>
      <point x="572" y="-88"/>
      <point x="643" y="-74"/>
      <point x="650" y="7" type="curve"/>
      <point x="660" y="0"/>
      <point x="672" y="-2"/>
      <point x="686" y="-2" type="curve" smooth="yes"/>
      <point x="745" y="-2"/>
      <point x="764" y="28"/>
      <point x="762" y="83" type="curve" smooth="yes"/>
      <point x="755" y="276" type="line"/>
      <point x="702" y="276" type="line"/>
      <point x="710" y="99" type="line" smooth="yes"/>
      <point x="712" y="62"/>
      <point x="711" y="49"/>
      <point x="684" y="49" type="curve" smooth="yes"/>
      <point x="669" y="49"/>
      <point x="654" y="53"/>
      <point x="648" y="80" type="curve" smooth="yes"/>
      <point x="646" y="89"/>
      <point x="640" y="112"/>
      <point x="635" y="134" type="curve"/>
      <point x="583" y="123" type="line"/>
      <point x="591" y="93"/>
      <point x="596" y="71"/>
      <point x="602" y="38" type="curve" smooth="yes"/>
      <point x="612" y="-21"/>
      <point x="562" y="-34"/>
      <point x="516" y="-35" type="curve"/>
    </contour>
    <contour>
      <point x="493" y="339" type="curve"/>
      <point x="490" y="388" type="line"/>
      <point x="455" y="377"/>
      <point x="415" y="385"/>
      <point x="415" y="399" type="curve" smooth="yes"/>
      <point x="415" y="416"/>
      <point x="441" y="435"/>
      <point x="486" y="436" type="curve"/>
      <point x="481" y="488" type="line"/>
      <point x="418" y="482"/>
      <point x="366" y="443"/>
      <point x="366" y="394" type="curve" smooth="yes"/>
      <point x="366" y="339"/>
      <point x="432" y="318"/>
    </contour>
    <contour>
      <point x="800" y="0" type="line"/>
      <point x="853" y="0" type="line"/>
      <point x="844" y="276" type="line"/>
      <point x="792" y="276" type="line"/>
    </contour>
    <contour>
      <point x="551" y="305" type="curve" smooth="yes"/>
      <point x="588" y="305"/>
      <point x="608" y="315"/>
      <point x="619" y="332" type="curve"/>
      <point x="627" y="317"/>
      <point x="645" y="305"/>
      <point x="671" y="305" type="curve" smooth="yes"/>
      <point x="743" y="305"/>
      <point x="757" y="342"/>
      <point x="755" y="405" type="curve" smooth="yes"/>
      <point x="747" y="583" type="line"/>
      <point x="694" y="583" type="line"/>
      <point x="702" y="407" type="line" smooth="yes"/>
      <point x="703" y="368"/>
      <point x="699" y="357"/>
      <point x="671" y="357" type="curve" smooth="yes"/>
      <point x="649" y="357"/>
      <point x="640" y="368"/>
      <point x="638" y="407" type="curve" smooth="yes"/>
      <point x="633" y="542" type="line"/>
      <point x="581" y="542" type="line"/>
      <point x="586" y="407" type="line" smooth="yes"/>
      <point x="587" y="368"/>
      <point x="588" y="357"/>
      <point x="555" y="357" type="curve" smooth="yes"/>
      <point x="533" y="357"/>
      <point x="521" y="364"/>
      <point x="519" y="399" type="curve" smooth="yes"/>
      <point x="513" y="507" type="line"/>
      <point x="463" y="507" type="line"/>
      <point x="468" y="373" type="line" smooth="yes"/>
      <point x="471" y="321"/>
      <point x="503" y="305"/>
    </contour>
    <contour>
      <point x="988" y="98" type="curve" smooth="yes"/>
      <point x="1007" y="98"/>
      <point x="1022" y="114"/>
      <point x="1022" y="133" type="curve" smooth="yes"/>
      <point x="1022" y="151"/>
      <point x="1007" y="167"/>
      <point x="988" y="167" type="curve" smooth="yes"/>
      <point x="966" y="167"/>
      <point x="953" y="151"/>
      <point x="953" y="133" type="curve" smooth="yes"/>
      <point x="953" y="114"/>
      <point x="966" y="98"/>
    </contour>
    <contour>
      <point x="572" y="557" type="curve" smooth="yes"/>
      <point x="592" y="557"/>
      <point x="607" y="571"/>
      <point x="607" y="591" type="curve"/>
      <point x="594" y="595" type="line"/>
      <point x="594" y="580"/>
      <point x="608" y="570"/>
      <point x="626" y="570" type="curve" smooth="yes"/>
      <point x="651" y="570"/>
      <point x="663" y="588"/>
      <point x="663" y="609" type="curve" smooth="yes"/>
      <point x="663" y="622"/>
      <point x="659" y="637"/>
      <point x="653" y="649" type="curve"/>
      <point x="624" y="640" type="line"/>
      <point x="628" y="631"/>
      <point x="631" y="621"/>
      <point x="631" y="613" type="curve" smooth="yes"/>
      <point x="631" y="607"/>
      <point x="629" y="602"/>
      <point x="623" y="602" type="curve" smooth="yes"/>
      <point x="618" y="602"/>
      <point x="617" y="605"/>
      <point x="617" y="610" type="curve"/>
      <point x="617" y="637" type="line"/>
      <point x="587" y="626" type="line"/>
      <point x="587" y="615" type="line"/>
      <point x="586" y="595"/>
      <point x="583" y="591"/>
      <point x="579" y="591" type="curve" smooth="yes"/>
      <point x="576" y="591"/>
      <point x="575" y="594"/>
      <point x="575" y="600" type="curve" smooth="yes"/>
      <point x="575" y="605"/>
      <point x="576" y="613"/>
      <point x="577" y="621" type="curve"/>
      <point x="545" y="616" type="line"/>
      <point x="544" y="606"/>
      <point x="543" y="596"/>
      <point x="543" y="589" type="curve" smooth="yes"/>
      <point x="543" y="571"/>
      <point x="553" y="557"/>
    </contour>
    <contour>
      <point x="991" y="-104" type="curve" smooth="yes"/>
      <point x="1090" y="-104"/>
      <point x="1117" y="-45"/>
      <point x="1122" y="9" type="curve"/>
      <point x="1131" y="3"/>
      <point x="1140" y="-2"/>
      <point x="1159" y="-2" type="curve" smooth="yes"/>
      <point x="1194" y="-2"/>
      <point x="1203" y="15"/>
      <point x="1224" y="58" type="curve" smooth="yes"/>
      <point x="1244" y="98"/>
      <point x="1263" y="108"/>
      <point x="1276" y="108" type="curve"/>
      <point x="1318" y="17"/>
      <point x="1328" y="-2"/>
      <point x="1383" y="-2" type="curve" smooth="yes"/>
      <point x="1481" y="-2"/>
      <point x="1521" y="60"/>
      <point x="1582" y="60" type="curve"/>
      <point x="1578" y="109" type="line"/>
      <point x="1570" y="109" type="line" smooth="yes"/>
      <point x="1521" y="109"/>
      <point x="1501" y="157"/>
      <point x="1435" y="157" type="curve" smooth="yes"/>
      <point x="1420" y="157"/>
      <point x="1406" y="154"/>
      <point x="1392" y="149" type="curve"/>
      <point x="1398" y="100" type="line"/>
      <point x="1413" y="104"/>
      <point x="1421" y="104"/>
      <point x="1435" y="104" type="curve" smooth="yes"/>
      <point x="1450" y="104"/>
      <point x="1476" y="95"/>
      <point x="1499" y="83" type="curve"/>
      <point x="1469" y="69"/>
      <point x="1422" y="49"/>
      <point x="1384" y="49" type="curve" smooth="yes"/>
      <point x="1358" y="49"/>
      <point x="1353" y="58"/>
      <point x="1336" y="89" type="curve" smooth="yes"/>
      <point x="1310" y="139"/>
      <point x="1308" y="154"/>
      <point x="1281" y="154" type="curve" smooth="yes"/>
      <point x="1257" y="154"/>
      <point x="1224" y="142"/>
      <point x="1198" y="99" type="curve" smooth="yes"/>
      <point x="1181" y="70"/>
      <point x="1179" y="50"/>
      <point x="1151" y="50" type="curve" smooth="yes"/>
      <point x="1133" y="50"/>
      <point x="1123" y="59"/>
      <point x="1119" y="71" type="curve" smooth="yes"/>
      <point x="1116" y="79"/>
      <point x="1107" y="115"/>
      <point x="1105" y="123" type="curve"/>
      <point x="1055" y="108" type="line"/>
      <point x="1064" y="79"/>
      <point x="1075" y="42"/>
      <point x="1075" y="17" type="curve" smooth="yes"/>
      <point x="1075" y="-17"/>
      <point x="1056" y="-52"/>
      <point x="993" y="-52" type="curve" smooth="yes"/>
      <point x="961" y="-52"/>
      <point x="924" y="-43"/>
      <point x="924" y="-10" type="curve" smooth="yes"/>
      <point x="924" y="2"/>
      <point x="929" y="22"/>
      <point x="942" y="49" type="curve"/>
      <point x="895" y="66" type="line"/>
      <point x="882" y="33"/>
      <point x="873" y="16"/>
      <point x="873" y="-12" type="curve" smooth="yes"/>
      <point x="873" y="-81"/>
      <point x="929" y="-104"/>
    </contour>
    <contour>
      <point x="793" y="307" type="line"/>
      <point x="845" y="307" type="line"/>
      <point x="837" y="583" type="line"/>
      <point x="785" y="583" type="line"/>
    </contour>
    <contour>
      <point x="1297" y="-7" type="curve" smooth="yes"/>
      <point x="1314" y="-7"/>
      <point x="1335" y="4"/>
      <point x="1343" y="19" type="curve"/>
      <point x="1324" y="60" type="line"/>
      <point x="1306" y="31"/>
      <point x="1260" y="45"/>
      <point x="1232" y="91" type="curve"/>
      <point x="1203" y="52" type="line"/>
      <point x="1239" y="0"/>
      <point x="1271" y="-7"/>
    </contour>
    <contour>
      <point x="1026" y="330" type="curve" smooth="yes"/>
      <point x="1051" y="330"/>
      <point x="1065" y="339"/>
      <point x="1074" y="355" type="curve"/>
      <point x="1053" y="397" type="line"/>
      <point x="1035" y="367"/>
      <point x="990" y="384"/>
      <point x="964" y="443" type="curve"/>
      <point x="933" y="403" type="line"/>
      <point x="965" y="336"/>
      <point x="1005" y="330"/>
    </contour>
    <contour>
      <point x="1157" y="177" type="line"/>
      <point x="1196" y="177" type="line"/>
      <point x="1193" y="258" type="line"/>
      <point x="1155" y="258" type="line"/>
    </contour>
    <contour>
      <point x="1333" y="182" type="line"/>
      <point x="1397" y="182"/>
      <point x="1439" y="222"/>
      <point x="1449" y="255" type="curve"/>
      <point x="1431" y="274"/>
      <point x="1385" y="289"/>
      <point x="1367" y="289" type="curve" smooth="yes"/>
      <point x="1350" y="289"/>
      <point x="1332" y="275"/>
      <point x="1323" y="264" type="curve"/>
      <point x="1344" y="238" type="line"/>
      <point x="1353" y="249"/>
      <point x="1362" y="253"/>
      <point x="1366" y="253" type="curve" smooth="yes"/>
      <point x="1380" y="253"/>
      <point x="1405" y="244"/>
      <point x="1421" y="235" type="curve"/>
      <point x="1419" y="264" type="line"/>
      <point x="1410" y="247"/>
      <point x="1380" y="217"/>
      <point x="1328" y="217" type="curve"/>
    </contour>
    <contour>
      <point x="1204" y="458" type="curve" smooth="yes"/>
      <point x="1238" y="458"/>
      <point x="1260" y="483"/>
      <point x="1260" y="517" type="curve" smooth="yes"/>
      <point x="1260" y="549"/>
      <point x="1239" y="578"/>
      <point x="1207" y="578" type="curve" smooth="yes"/>
      <point x="1174" y="578"/>
      <point x="1152" y="549"/>
      <point x="1152" y="514" type="curve" smooth="yes"/>
      <point x="1152" y="483"/>
      <point x="1169" y="458"/>
    </contour>
    <contour>
      <point x="1205" y="496" type="curve" smooth="yes"/>
      <point x="1192" y="496"/>
      <point x="1186" y="507"/>
      <point x="1186" y="517" type="curve" smooth="yes"/>
      <point x="1186" y="527"/>
      <point x="1193" y="539"/>
      <point x="1205" y="539" type="curve" smooth="yes"/>
      <point x="1216" y="539"/>
      <point x="1226" y="528"/>
      <point x="1226" y="516" type="curve" smooth="yes"/>
      <point x="1226" y="504"/>
      <point x="1216" y="496"/>
    </contour>
    <contour>
      <point x="1550" y="-84" type="line"/>
      <point x="1605" y="-88"/>
      <point x="1676" y="-74"/>
      <point x="1683" y="7" type="curve"/>
      <point x="1693" y="0"/>
      <point x="1705" y="-2"/>
      <point x="1719" y="-2" type="curve" smooth="yes"/>
      <point x="1778" y="-2"/>
      <point x="1797" y="28"/>
      <point x="1795" y="83" type="curve" smooth="yes"/>
      <point x="1788" y="267" type="line"/>
      <point x="1735" y="267" type="line"/>
      <point x="1743" y="99" type="line" smooth="yes"/>
      <point x="1745" y="62"/>
      <point x="1744" y="49"/>
      <point x="1717" y="49" type="curve" smooth="yes"/>
      <point x="1702" y="49"/>
      <point x="1687" y="53"/>
      <point x="1681" y="80" type="curve" smooth="yes"/>
      <point x="1679" y="89"/>
      <point x="1673" y="112"/>
      <point x="1668" y="134" type="curve"/>
      <point x="1616" y="123" type="line"/>
      <point x="1624" y="93"/>
      <point x="1629" y="71"/>
      <point x="1635" y="38" type="curve" smooth="yes"/>
      <point x="1646" y="-21"/>
      <point x="1595" y="-34"/>
      <point x="1549" y="-35" type="curve"/>
    </contour>
    <contour>
      <point x="1663" y="234" type="curve" smooth="yes"/>
      <point x="1682" y="234"/>
      <point x="1697" y="250"/>
      <point x="1697" y="269" type="curve" smooth="yes"/>
      <point x="1697" y="287"/>
      <point x="1682" y="303"/>
      <point x="1663" y="303" type="curve" smooth="yes"/>
      <point x="1641" y="303"/>
      <point x="1628" y="287"/>
      <point x="1628" y="269" type="curve" smooth="yes"/>
      <point x="1628" y="250"/>
      <point x="1641" y="234"/>
    </contour>
    <contour>
      <point x="1837" y="0" type="line"/>
      <point x="1889" y="0" type="line"/>
      <point x="1882" y="267" type="line"/>
      <point x="1829" y="267" type="line"/>
    </contour>
    <contour>
      <point x="1808" y="301" type="curve" smooth="yes"/>
      <point x="1863" y="301"/>
      <point x="1879" y="332"/>
      <point x="1879" y="353" type="curve" smooth="yes"/>
      <point x="1879" y="380"/>
      <point x="1856" y="394"/>
      <point x="1835" y="394" type="curve" smooth="yes"/>
      <point x="1800" y="394"/>
      <point x="1777" y="362"/>
      <point x="1764" y="333" type="curve"/>
      <point x="1761" y="333"/>
      <point x="1754" y="334"/>
      <point x="1749" y="335" type="curve"/>
      <point x="1747" y="306" type="line"/>
      <point x="1760" y="304"/>
      <point x="1790" y="301"/>
    </contour>
    <contour>
      <point x="1811" y="331" type="curve" smooth="yes"/>
      <point x="1809" y="331"/>
      <point x="1806" y="331"/>
      <point x="1800" y="332" type="curve"/>
      <point x="1808" y="351"/>
      <point x="1821" y="360"/>
      <point x="1831" y="360" type="curve" smooth="yes"/>
      <point x="1836" y="360"/>
      <point x="1844" y="358"/>
      <point x="1844" y="349" type="curve" smooth="yes"/>
      <point x="1844" y="339"/>
      <point x="1834" y="331"/>
    </contour>
  </outline>
</glyph>
<glyph name="_part.haa" format="2">
  <advance width="482"/>
  <outline>
    <contour>
      <point x="129" y="41" type="curve"/>
      <point x="171" y="-5"/>
      <point x="228" y="-49"/>
      <point x="278" y="-87" type="curve"/>
      <point x="330" y="-29"/>
      <point x="394" y="44"/>
      <point x="447" y="107" type="curve" smooth="yes"/>
      <point x="507" y="179"/>
      <point x="543" y="223"/>
      <point x="543" y="290" type="curve" smooth="yes"/>
      <point x="543" y="370"/>
      <point x="488" y="414"/>
      <point x="428" y="414" type="curve" smooth="yes"/>
      <point x="353" y="414"/>
      <point x="303" y="373"/>
      <point x="303" y="314" type="curve" smooth="yes"/>
      <point x="303" y="276"/>
      <point x="319" y="231"/>
      <point x="366" y="211" type="curve"/>
      <point x="369" y="277" type="line"/>
      <point x="349" y="256"/>
      <point x="328" y="234"/>
      <point x="302" y="209" type="curve" smooth="yes"/>
      <point x="249" y="157"/>
      <point x="181" y="91"/>
    </contour>
  </outline>
</glyph>
<glyph name="_part.jav" format="2">
  <advance width="590"/>
  <outline>
    <contour>
      <point x="540" y="650" type="line"/>
      <point x="490" y="616"/>
      <point x="452" y="593"/>
      <point x="407" y="566" type="curve"/>
      <point x="380" y="471" type="line"/>
      <point x="419" y="445"/>
      <point x="465" y="412"/>
      <point x="476" y="357" type="curve"/>
      <point x="546" y="436" type="line"/>
      <point x="516" y="417"/>
      <point x="468" y="408"/>
      <point x="421" y="408" type="curve" smooth="yes"/>
      <point x="369" y="408"/>
      <point x="319" y="417"/>
      <point x="282" y="432" type="curve"/>
      <point x="282" y="245" type="line"/>
      <point x="315" y="239"/>
      <point x="347" y="238"/>
      <point x="360" y="238" type="curve" smooth="yes"/>
      <point x="454" y="238"/>
      <point x="529" y="261"/>
      <point x="565" y="292" type="curve"/>
      <point x="587" y="330"/>
      <point x="610" y="381"/>
      <point x="610" y="416" type="curve" smooth="yes"/>
      <point x="610" y="466"/>
      <point x="570" y="522"/>
      <point x="507" y="568" type="curve"/>
      <point x="499" y="484" type="line"/>
      <point x="536" y="509"/>
      <point x="568" y="531"/>
      <point x="619" y="570" type="curve"/>
    </contour>
  </outline>
</glyph>
<glyph name="allah-ar" format="2">
  <advance width="1411"/>
  <outline>
    <contour>
      <point x="524" y="-5" type="curve" smooth="yes"/>
      <point x="597" y="-5"/>
      <point x="647" y="12"/>
      <point x="683" y="59" type="curve"/>
      <point x="716" y="8"/>
      <point x="779" y="-5"/>
      <point x="839" y="-5" type="curve" smooth="yes"/>
      <point x="1066" y="-5"/>
      <point x="1089" y="91"/>
      <point x="1084" y="228" type="curve" smooth="yes"/>
      <point x="1067" y="694" type="line"/>
      <point x="890" y="694" type="line"/>
      <point x="906" y="247" type="line" smooth="yes"/>
      <point x="909" y="161"/>
      <point x="904" y="147"/>
      <point x="847" y="147" type="curve" smooth="yes"/>
      <point x="779" y="147"/>
      <point x="770" y="162"/>
      <point x="768" y="248" type="curve" smooth="yes"/>
      <point x="759" y="599" type="line"/>
      <point x="583" y="599" type="line"/>
      <point x="590" y="247" type="line" smooth="yes"/>
      <point x="592" y="161"/>
      <point x="588" y="147"/>
      <point x="532" y="147" type="curve" smooth="yes"/>
      <point x="476" y="147"/>
      <point x="459" y="161"/>
      <point x="457" y="223" type="curve" smooth="yes"/>
      <point x="443" y="587" type="line"/>
      <point x="274" y="587" type="line"/>
      <point x="278" y="471" type="line"/>
      <point x="129" y="434"/>
      <point x="25" y="360"/>
      <point x="25" y="232" type="curve" smooth="yes"/>
      <point x="25" y="90"/>
      <point x="162" y="46"/>
      <point x="319" y="70" type="curve"/>
      <point x="355" y="17"/>
      <point x="424" y="-5"/>
    </contour>
    <contour>
      <point x="290" y="204" type="line"/>
      <point x="234" y="193"/>
      <point x="190" y="209"/>
      <point x="190" y="243" type="curve" smooth="yes"/>
      <point x="190" y="284"/>
      <point x="229" y="314"/>
      <point x="284" y="326" type="curve"/>
    </contour>
    <contour>
      <point x="1195" y="-1" type="line"/>
      <point x="1371" y="-1" type="line"/>
      <point x="1354" y="694" type="line"/>
      <point x="1177" y="694" type="line"/>
    </contour>
    <contour>
      <point x="590" y="661" type="curve" smooth="yes"/>
      <point x="624" y="661"/>
      <point x="658" y="690"/>
      <point x="658" y="746" type="curve"/>
      <point x="639" y="753" type="line"/>
      <point x="639" y="710"/>
      <point x="669" y="689"/>
      <point x="695" y="689" type="curve" smooth="yes"/>
      <point x="756" y="689"/>
      <point x="779" y="727"/>
      <point x="779" y="779" type="curve" smooth="yes"/>
      <point x="779" y="801"/>
      <point x="771" y="831"/>
      <point x="760" y="853" type="curve"/>
      <point x="696" y="841" type="line"/>
      <point x="703" y="822"/>
      <point x="708" y="802"/>
      <point x="708" y="783" type="curve" smooth="yes"/>
      <point x="708" y="765"/>
      <point x="704" y="753"/>
      <point x="688" y="753" type="curve" smooth="yes"/>
      <point x="681" y="753"/>
      <point x="678" y="760"/>
      <point x="678" y="779" type="curve" smooth="yes"/>
      <point x="678" y="831" type="line"/>
      <point x="617" y="816" type="line"/>
      <point x="617" y="790" type="line" smooth="yes"/>
      <point x="617" y="740"/>
      <point x="612" y="728"/>
      <point x="602" y="728" type="curve" smooth="yes"/>
      <point x="594" y="728"/>
      <point x="590" y="734"/>
      <point x="590" y="756" type="curve" smooth="yes"/>
      <point x="590" y="768"/>
      <point x="592" y="785"/>
      <point x="594" y="804" type="curve"/>
      <point x="521" y="792" type="line"/>
      <point x="518" y="774"/>
      <point x="516" y="761"/>
      <point x="516" y="748" type="curve" smooth="yes"/>
      <point x="516" y="700"/>
      <point x="529" y="661"/>
    </contour>
    <contour>
      <point x="593" y="881" type="line"/>
      <point x="688" y="881" type="line"/>
      <point x="684" y="1004" type="line"/>
      <point x="589" y="1004" type="line"/>
    </contour>
  </outline>
</glyph>
<glyph name="dotabove" format="2">
  <anchor x="335" y="622" name="_top"/>
  <outline>
    <contour>
      <point x="334" y="646" type="curve" smooth="yes"/>
      <point x="370" y="646"/>
      <point x="388" y="660"/>
      <point x="388" y="706" type="curve" smooth="yes"/>
      <point x="388" y="752"/>
      <point x="371" y="767"/>
      <point x="328" y="767" type="curve" smooth="yes"/>
      <point x="287" y="767"/>
      <point x="269" y="744"/>
      <point x="269" y="695" type="curve" smooth="yes"/>
      <point x="269" y="655"/>
      <point x="292" y="646"/>
    </contour>
  </outline>
</glyph>
<glyph name="dotbelow" format="2">
  <anchor x="328" y="0" name="_bottom"/>
  <outline>
    <contour>
      <point x="334" y="-170" type="curve" smooth="yes"/>
      <point x="370" y="-170"/>
      <point x="388" y="-156"/>
      <point x="388" y="-110" type="curve" smooth="yes"/>
      <point x="388" y="-64"/>
      <point x="371" y="-49"/>
      <point x="328" y="-49" type="curve" smooth="yes"/>
      <point x="287" y="-49"/>
      <point x="269" y="-72"/>
      <point x="269" y="-121" type="curve" smooth="yes"/>
      <point x="269" y="-161"/>
      <point x="292" y="-170"/>
    </contour>
  </outline>
</glyph>
